<?xml version="1.0" standalone="no"?>
<!DOCTYPE svg PUBLIC "-//W3C//DTD SVG 20010904//EN"
 "http://www.w3.org/TR/2001/REC-SVG-20010904/DTD/svg10.dtd">
<svg version="1.0" xmlns="http://www.w3.org/2000/svg"
 width="500.000000pt" height="350.000000pt" viewBox="0 0 500.000000 350.000000"
 preserveAspectRatio="xMidYMid meet">

<g transform="translate(0.000000,350.000000) scale(0.100000,-0.100000)"
 stroke="none">
<path d="M2766 2972 c43 -38 69 -82 54 -92 -8 -5 -7 -11 4 -23 25 -25 20 -40
-11 -34 -26 5 -26 4 -8 -9 10 -8 22 -14 27 -14 4 0 5 -15 2 -32 -3 -18 -5 -48
-4 -65 0 -18 -4 -33 -10 -33 -6 0 -9 -3 -7 -7 8 -14 -12 -54 -24 -47 -8 5 -9
2 -2 -11 6 -10 7 -32 3 -50 l-7 -33 38 21 c21 11 36 24 33 29 -3 4 -1 8 5 8 6
0 21 11 33 23 13 13 32 23 41 21 9 -1 17 4 17 11 0 20 38 29 57 13 14 -11 16
-11 11 4 -9 22 0 28 26 18 17 -6 23 -5 23 6 0 17 -32 18 -78 3 -45 -16 -161
-98 -154 -110 3 -5 -1 -6 -9 -3 -19 7 -20 -2 5 69 25 69 30 201 10 250 -18 44
-74 114 -91 114 -9 0 -4 -10 16 -27z"/>
<path d="M2460 2919 c97 -20 95 -20 79 -30 -10 -8 -7 -9 14 -6 18 3 30 0 34
-9 3 -8 12 -14 20 -14 9 0 13 -6 9 -15 -3 -8 0 -14 6 -12 22 4 19 -23 -4 -33
-21 -10 -21 -10 5 -5 21 4 33 0 47 -17 11 -13 17 -29 15 -35 -2 -7 1 -13 7
-13 7 0 6 -5 -2 -15 -11 -13 -10 -14 5 -8 14 5 17 3 12 -10 -3 -9 -2 -19 4
-22 5 -4 7 -11 3 -16 -3 -5 0 -16 6 -24 7 -8 9 -15 6 -15 -4 0 0 -7 9 -16 9
-9 18 -15 20 -13 7 8 -52 171 -66 180 -8 5 -11 9 -6 9 15 0 -22 58 -55 85 -48
40 -113 65 -166 64 l-47 -1 45 -9z"/>
<path d="M2578 2823 c7 -3 16 -2 19 1 4 3 -2 6 -13 5 -11 0 -14 -3 -6 -6z"/>
<path d="M3084 2692 c9 -9 79 -32 96 -32 13 1 13 2 -1 10 -19 11 -103 31 -95
22z"/>
<path d="M2362 2670 c-23 -10 -132 -89 -132 -97 0 -3 22 11 49 31 26 20 51 33
54 29 4 -3 18 2 32 11 16 10 25 12 25 5 0 -8 4 -8 14 0 28 23 27 -8 0 -46 -24
-33 -22 -32 13 7 44 48 66 50 37 3 l-17 -28 27 30 c15 17 29 25 32 19 3 -6 17
-9 31 -6 22 4 25 2 19 -13 -6 -16 -4 -16 10 -4 16 13 17 11 10 -15 l-7 -30 21
25 21 24 -7 -25 c-6 -23 -6 -23 10 -7 21 21 27 22 20 3 -5 -14 18 -24 66 -31
24 -4 24 -3 -8 25 -19 15 -65 44 -104 64 -59 30 -80 36 -132 35 -33 0 -71 -4
-84 -9z"/>
<path d="M3010 2567 c-3 -3 -24 -7 -48 -11 -59 -8 -110 -35 -59 -32 12 1 25
-3 29 -9 5 -6 8 -3 8 8 0 28 20 19 21 -10 2 -25 2 -25 6 -5 3 13 10 25 17 28
30 12 72 9 84 -6 8 -8 11 -9 7 -2 -4 8 3 12 24 12 21 0 31 -5 31 -16 0 -8 5
-12 10 -9 6 4 7 12 3 18 -3 7 3 3 15 -7 13 -11 22 -14 22 -7 0 8 5 8 19 -1 11
-7 17 -16 15 -20 -3 -4 1 -8 9 -8 8 0 32 -21 53 -47 21 -27 44 -54 51 -61 22
-23 14 0 -12 34 -14 18 -25 37 -25 41 0 5 -12 20 -27 34 -32 28 -93 63 -93 53
0 -3 -7 -1 -15 6 -15 12 -135 27 -145 17z"/>
<path d="M2605 2499 c-120 -14 -207 -62 -244 -135 -21 -42 -30 -76 -9 -39 24
44 53 85 62 85 5 0 15 8 23 18 10 12 16 14 19 5 8 -19 21 -16 26 5 7 23 59 38
135 37 39 0 64 4 67 12 7 17 -12 20 -79 12z"/>
<path d="M3146 2480 c3 -14 11 -32 16 -40 6 -10 7 -7 2 10 -3 14 -11 32 -16
40 -6 10 -7 7 -2 -10z"/>
<path d="M2694 2423 c-246 -280 -342 -470 -315 -620 22 -115 110 -222 219
-264 80 -31 215 -31 293 -1 122 48 193 149 194 276 0 56 -6 83 -27 128 -33 72
-69 119 -112 149 -31 21 -32 24 -25 63 15 81 -17 173 -87 257 -30 35 -36 39
-30 19 4 -14 8 -30 9 -35 1 -6 10 -21 20 -35 22 -31 21 -37 -4 -45 -11 -4 -19
-9 -16 -11 2 -3 17 0 32 6 23 9 26 8 21 -5 -3 -8 -1 -15 5 -15 6 0 7 -5 4 -10
-4 -6 -1 -17 5 -25 10 -12 8 -19 -11 -36 l-24 -20 23 11 c33 16 38 6 10 -20
l-23 -22 35 17 c34 18 35 18 20 -1 -8 -10 -19 -22 -25 -26 -6 -5 -3 -8 7 -8
11 0 15 -5 12 -14 -4 -11 -10 -11 -30 -2 -13 6 -24 13 -24 16 0 14 -150 10
-184 -4 -20 -8 -36 -12 -36 -8 0 13 66 185 103 270 20 45 33 82 28 82 -4 0
-35 -30 -67 -67z m121 -318 c71 -19 72 -20 53 -42 -8 -10 -18 -25 -22 -33 -4
-8 5 0 21 18 l29 33 44 -39 c66 -58 94 -120 98 -217 4 -95 -14 -138 -68 -167
-70 -38 -213 2 -286 79 -53 58 -76 109 -82 186 -7 96 16 153 72 178 50 23 66
23 141 4z"/>
<path d="M2840 2481 c8 -5 18 -7 22 -5 4 3 8 -3 9 -13 0 -11 3 -13 6 -5 4 10
9 8 21 -5 10 -10 28 -18 42 -19 14 0 24 -5 23 -12 -2 -6 4 -9 12 -6 8 4 15 1
15 -6 0 -9 3 -10 14 -1 11 9 15 7 19 -9 3 -11 10 -20 17 -20 6 0 8 5 4 12 -4
6 -3 8 3 5 7 -5 8 -20 2 -44 -12 -53 -10 -64 5 -24 13 38 43 59 32 23 -6 -17
-3 -19 14 -15 14 4 20 1 20 -11 0 -9 5 -16 10 -16 6 0 10 -19 11 -42 1 -36 2
-39 8 -18 7 21 9 18 15 -25 11 -75 17 -78 10 -5 -10 116 -52 176 -152 222 -36
15 -67 26 -70 23 -3 -3 -11 0 -17 5 -7 6 -34 13 -61 16 -35 4 -45 3 -34 -5z"/>
<path d="M3076 2305 c-3 -9 -6 -26 -5 -38 1 -16 4 -12 10 12 10 34 6 55 -5 26z"/>
<path d="M303 1838 c-87 -144 -159 -266 -161 -270 -2 -4 25 -8 60 -8 l63 1
116 195 117 196 50 -84 51 -83 -77 -3 -77 -3 -22 -39 c-13 -21 -23 -41 -23
-44 0 -4 56 -6 125 -6 l126 0 40 -65 41 -65 64 0 c35 0 64 2 64 4 0 3 -72 124
-161 270 l-161 266 -38 0 -38 0 -159 -262z"/>
<path d="M920 1830 l0 -271 238 3 c216 3 240 5 271 23 46 27 71 77 71 142 0
43 -5 58 -29 85 l-29 33 24 28 c29 34 33 111 9 157 -31 59 -55 65 -317 68
l-238 4 0 -272z m430 157 c31 -15 39 -66 15 -91 -14 -13 -40 -16 -151 -16
l-134 0 0 -45 0 -45 133 0 c104 0 137 -3 155 -16 28 -20 29 -65 1 -90 -18 -17
-40 -19 -180 -22 l-159 -3 0 170 0 171 148 0 c98 0 155 -4 172 -13z"/>
<path d="M1590 1830 l0 -270 55 0 55 0 0 270 0 270 -55 0 -55 0 0 -270z"/>
<path d="M1974 2091 c-64 -16 -118 -55 -151 -109 -92 -155 -22 -359 141 -407
35 -11 98 -15 213 -15 l163 0 0 50 0 50 -154 0 c-85 0 -167 5 -183 11 -135 51
-148 246 -19 308 37 19 61 21 199 21 l157 0 0 50 0 50 -167 -1 c-93 -1 -182
-4 -199 -8z"/>
<path d="M3130 1830 l0 -270 55 0 55 0 0 270 0 270 -55 0 -55 0 0 -270z"/>
<path d="M3340 1830 l0 -270 55 0 55 0 0 221 0 220 161 -3 161 -3 25 -29 c34
-40 28 -109 -12 -143 -24 -21 -35 -23 -156 -23 l-129 0 0 -45 0 -45 98 0 99 0
67 -75 67 -75 76 0 75 0 -75 83 -74 82 38 35 c82 77 76 237 -12 302 -42 31
-93 38 -311 38 l-208 0 0 -270z"/>
<path d="M4030 1830 l0 -270 55 0 55 0 0 221 0 220 161 -3 161 -3 25 -29 c34
-40 28 -109 -12 -143 -24 -21 -35 -23 -156 -23 l-129 0 0 -45 0 -45 98 0 99 0
67 -75 67 -75 76 0 75 0 -76 83 -75 84 29 22 c84 61 92 221 16 297 -47 47 -87
54 -323 54 l-213 0 0 -270z"/>
</g>
</svg>
