<?xml version="1.0" standalone="no"?>
<!DOCTYPE svg PUBLIC "-//W3C//DTD SVG 20010904//EN"
 "http://www.w3.org/TR/2001/REC-SVG-20010904/DTD/svg10.dtd">
<svg version="1.0" xmlns="http://www.w3.org/2000/svg"
 width="816.000000pt" height="278.000000pt" viewBox="0 0 816.000000 278.000000"
 preserveAspectRatio="xMidYMid meet">

<g transform="translate(0.000000,278.000000) scale(0.100000,-0.100000)"
fill="#000000" stroke="none">
<path d="M4719 2692 c5 -10 18 -25 27 -33 39 -32 74 -92 74 -129 0 -20 7 -45
15 -56 8 -10 15 -29 15 -41 0 -19 -5 -23 -32 -23 l-32 0 33 -31 33 -30 -6 -80
c-7 -72 -19 -116 -62 -229 -7 -19 -13 -63 -14 -98 l0 -64 38 23 c20 12 56 41
78 63 23 23 66 54 95 70 30 16 66 40 81 54 23 21 33 24 67 18 34 -5 41 -3 46
14 5 15 15 20 42 20 23 0 33 4 30 13 -3 8 -22 12 -56 11 -77 -2 -172 -55 -333
-186 -47 -37 -48 -21 -3 142 10 38 15 103 15 215 0 185 -6 205 -91 311 -48 61
-82 86 -60 46z"/>
<path d="M4238 2571 c34 -10 71 -26 81 -35 9 -9 23 -16 30 -16 27 0 89 -41
116 -76 24 -32 26 -40 16 -57 -14 -21 -2 -36 29 -37 34 -1 80 -60 80 -103 0
-20 6 -30 19 -34 12 -3 18 -14 18 -31 0 -46 29 -132 53 -157 13 -14 25 -23 28
-21 7 7 -43 150 -95 273 -27 62 -65 132 -85 156 -71 85 -215 158 -310 156
l-43 0 63 -18z"/>
<path d="M5310 2170 c20 -13 151 -53 156 -47 10 9 -24 26 -82 41 -73 19 -97
21 -74 6z"/>
<path d="M4074 2150 c-54 -8 -114 -38 -201 -102 -56 -41 -86 -75 -38 -44 71
47 117 67 194 86 46 12 86 18 89 15 3 -3 -4 -26 -17 -52 l-23 -47 45 37 c60
49 80 50 56 4 -12 -21 -12 -21 14 -4 15 10 47 20 71 23 36 5 47 3 61 -14 10
-11 25 -17 35 -15 14 4 16 -1 12 -29 -4 -31 -4 -32 14 -17 36 31 47 33 39 10
-8 -26 -2 -26 32 -3 15 9 24 12 20 6 -10 -17 28 -46 80 -59 27 -7 50 -11 52
-9 14 13 -99 95 -206 148 -116 58 -229 81 -329 66z"/>
<path d="M5080 1939 c-19 -6 -59 -17 -87 -25 -29 -9 -53 -19 -53 -24 0 -5 21
-12 46 -16 38 -5 48 -4 56 10 14 25 28 19 28 -11 l0 -28 18 21 c32 40 57 46
166 39 71 -4 106 -11 119 -22 13 -12 20 -14 28 -6 7 7 19 8 33 3 11 -5 33 -11
47 -14 17 -4 69 -50 138 -121 61 -64 111 -113 111 -109 0 14 -76 131 -110 168
-84 93 -201 137 -380 142 -70 2 -140 -1 -160 -7z"/>
<path d="M4365 1819 c-173 -36 -307 -125 -366 -242 -30 -58 -18 -65 18 -10 18
27 57 73 88 102 43 40 60 51 76 46 14 -5 28 0 42 14 43 40 89 52 262 67 72 6
92 14 81 33 -10 16 -98 12 -201 -10z"/>
<path d="M4868 1809 c-10 -7 -9 -9 4 -9 10 0 25 -8 35 -19 10 -10 29 -22 43
-26 14 -4 62 -25 106 -46 45 -22 91 -39 103 -39 11 0 25 -9 31 -21 7 -11 18
-18 25 -15 23 8 28 -12 15 -65 -16 -66 -7 -73 21 -15 24 52 36 57 45 22 3 -14
18 -29 34 -36 32 -13 60 -70 60 -121 0 -23 4 -30 14 -26 14 6 26 -18 39 -78 3
-11 5 1 6 26 2 82 -42 198 -105 275 -70 87 -419 228 -476 193z"/>
<path d="M4645 1748 c-210 -225 -411 -502 -505 -693 -60 -123 -87 -202 -101
-299 -39 -259 178 -570 447 -641 92 -25 274 -30 364 -11 163 34 303 132 375
261 53 95 68 161 63 279 -7 163 -66 286 -208 431 l-78 80 0 111 c0 121 -10
172 -49 249 -32 62 -102 162 -138 195 l-27 25 6 -25 c4 -14 24 -57 43 -97 36
-71 36 -73 18 -93 -18 -20 -18 -20 18 -20 35 0 36 -1 47 -56 11 -53 11 -69 -4
-105 -6 -14 -2 -16 21 -11 l28 5 -24 -27 c-29 -31 -24 -40 13 -27 32 13 33 5
4 -27 -22 -22 -22 -24 -5 -36 19 -15 23 -36 5 -36 -6 0 -41 12 -77 26 -61 25
-74 26 -166 21 -55 -3 -126 -11 -158 -18 -31 -7 -60 -9 -64 -6 -7 8 29 106
139 380 44 108 78 205 76 214 -2 11 -21 -3 -63 -49z m204 -624 c67 -23 83 -44
56 -73 -10 -12 -16 -24 -13 -27 3 -3 20 12 37 33 l31 38 79 -79 c121 -120 171
-240 171 -412 0 -183 -71 -272 -226 -282 -85 -5 -156 10 -239 50 -198 97 -305
269 -305 492 0 134 43 220 133 266 36 18 54 21 132 17 50 -3 114 -13 144 -23z"/>
<path d="M5411 1790 c0 -8 4 -24 9 -35 l9 -20 0 20 c0 11 -4 27 -9 35 -9 13
-10 13 -9 0z"/>
<path d="M5278 1480 c-4 -14 -8 -34 -8 -45 1 -19 1 -19 11 -2 6 10 9 30 7 45
l-3 27 -7 -25z"/>
<path d="M5750 656 l0 -486 100 0 100 0 0 381 c-1 210 1 383 4 386 5 6 557 4
566 -2 21 -13 69 -100 75 -134 9 -54 -11 -119 -49 -157 -37 -37 -58 -40 -326
-50 -96 -3 -178 -8 -182 -11 -5 -2 -8 -35 -8 -74 l0 -69 174 0 175 0 21 -28
c12 -15 67 -76 122 -135 l101 -108 106 2 c59 1 116 5 126 9 21 7 27 0 -158
198 l-68 73 51 57 c60 68 86 118 101 198 23 124 -8 239 -87 320 -39 40 -64 56
-105 68 -64 19 -329 34 -623 36 -109 0 -203 3 -208 6 -4 3 -8 -213 -8 -480z"/>
<path d="M382 713 c-308 -515 -316 -530 -302 -538 11 -7 162 -4 193 3 10 3 95
134 207 321 104 174 196 326 204 336 13 18 16 16 48 -35 19 -30 57 -92 83
-138 40 -68 46 -85 34 -93 -8 -5 -66 -9 -129 -9 l-116 0 -41 -72 c-23 -40 -39
-76 -37 -80 3 -4 104 -8 224 -8 l218 0 67 -109 66 -108 46 -7 c56 -7 183 -8
183 -1 0 14 -47 94 -293 503 -191 318 -266 436 -284 443 -13 5 -46 9 -73 9
l-48 0 -250 -417z"/>
<path d="M1440 973 c0 -87 3 -304 7 -482 l6 -323 386 5 c439 6 489 12 546 67
48 47 77 121 83 211 5 82 -5 111 -59 180 -33 42 -35 52 -15 68 8 7 24 33 36
58 32 68 31 163 -3 236 -31 67 -65 91 -151 106 -75 13 -461 31 -678 31 l-158
0 0 -157z m743 -43 c20 -6 44 -22 53 -35 16 -25 23 -103 10 -123 -15 -24 -89
-32 -298 -32 l-218 0 0 -67 c0 -38 5 -75 10 -83 8 -12 50 -16 237 -21 125 -3
236 -9 245 -13 41 -19 63 -85 43 -133 -23 -54 -59 -63 -294 -73 -113 -5 -234
-10 -268 -10 l-63 0 0 307 0 306 253 -6 c138 -3 269 -11 290 -17z"/>
<path d="M2653 1120 l-23 -9 0 -471 0 -470 100 0 100 0 0 480 0 480 -77 -1
c-43 0 -88 -4 -100 -9z"/>
<path d="M3555 1119 c-233 -7 -283 -17 -362 -68 -153 -99 -228 -270 -203 -467
23 -178 104 -289 275 -376 l60 -31 323 -5 322 -5 0 81 0 81 -32 6 c-18 3 -148
9 -289 14 -233 7 -260 10 -301 30 -53 25 -111 80 -132 126 -59 125 -28 298 67
368 83 63 100 66 431 71 267 4 256 0 256 107 l0 68 -108 3 c-59 2 -197 0 -307
-3z"/>
<path d="M5380 1128 c0 -2 -1 -218 -3 -481 l-2 -477 98 0 97 0 0 474 c0 423
-2 475 -16 480 -15 6 -174 9 -174 4z"/>
<path d="M6975 651 l0 -481 97 0 98 0 2 388 3 387 265 -3 c305 -4 319 -7 359
-82 32 -58 33 -121 2 -176 -42 -75 -56 -78 -316 -84 l-229 -5 -3 -55 c-7 -106
-17 -100 176 -100 l169 0 100 -107 c55 -60 110 -121 123 -136 l24 -28 132 3
131 3 -123 135 c-68 74 -124 139 -124 144 -1 5 21 32 48 61 85 90 96 120 96
265 -1 137 -7 157 -71 237 -72 88 -139 100 -623 109 l-336 7 0 -482z"/>
</g>
</svg>
