<?xml version="1.0" standalone="no"?>
<!DOCTYPE svg PUBLIC "-//W3C//DTD SVG 20010904//EN"
 "http://www.w3.org/TR/2001/REC-SVG-20010904/DTD/svg10.dtd">
<svg version="1.0" xmlns="http://www.w3.org/2000/svg"
 width="660.000000pt" height="225.000000pt" viewBox="0 0 660.000000 225.000000"
 preserveAspectRatio="xMidYMid meet">

<g transform="translate(0.000000,225.000000) scale(0.100000,-0.100000)"
fill="#000000" stroke="none">
<path d="M3638 2126 c49 -53 65 -82 58 -104 -4 -10 1 -27 9 -38 22 -29 18 -44
-12 -44 l-28 -1 26 -19 c25 -19 26 -23 21 -92 -2 -40 -8 -77 -13 -82 -5 -6 -9
-17 -9 -26 0 -8 -7 -26 -16 -39 -10 -14 -18 -47 -19 -82 l-3 -58 40 22 c22 12
42 29 45 37 5 16 83 70 101 70 6 0 23 12 36 27 23 25 29 26 56 16 27 -10 30
-9 30 9 0 17 5 20 30 15 22 -5 30 -3 30 8 0 18 -38 20 -91 5 -42 -12 -140 -73
-188 -118 -57 -54 -63 -43 -29 58 16 51 21 92 22 190 1 110 -2 130 -21 165
-26 48 -90 125 -105 125 -6 0 8 -20 30 -44z"/>
<path d="M3250 2062 c46 -11 74 -22 73 -30 -2 -7 8 -12 23 -12 26 0 79 -34 79
-51 0 -5 7 -14 15 -19 12 -7 12 -12 -4 -29 -17 -19 -17 -20 15 -23 39 -4 72
-44 72 -87 0 -22 4 -28 15 -23 12 4 14 1 9 -13 -4 -9 -3 -23 3 -30 6 -7 10
-17 9 -21 -1 -5 1 -21 5 -36 8 -28 46 -69 46 -50 0 18 -40 131 -68 192 -26 56
-29 63 -31 79 0 4 -20 29 -42 55 -57 65 -145 108 -229 112 l-65 4 75 -18z"/>
<path d="M4060 1761 c8 -6 32 -16 53 -22 21 -5 45 -13 53 -16 8 -3 14 0 14 6
0 9 -33 21 -105 36 -23 5 -27 4 -15 -4z"/>
<path d="M3109 1741 c-35 -7 -154 -85 -180 -118 -8 -10 10 0 39 21 49 35 97
55 147 59 11 1 26 6 33 11 25 16 27 -5 4 -47 l-23 -42 40 39 c41 40 66 43 43
5 -13 -20 -13 -20 15 -1 33 24 103 20 103 -5 0 -13 2 -13 17 -2 15 13 16 11
10 -20 l-7 -35 26 25 26 24 -7 -25 c-7 -24 -7 -24 12 -7 21 18 38 23 28 7 -8
-12 32 -36 73 -44 54 -9 42 5 -58 71 -118 78 -236 107 -341 84z"/>
<path d="M3925 1594 c-96 -22 -145 -38 -145 -45 0 -5 11 -9 24 -9 13 0 31 -3
40 -6 11 -4 16 -1 16 10 0 9 5 16 10 16 6 0 10 -10 10 -22 l0 -23 19 24 c15
20 27 25 63 24 23 -1 64 -2 90 -2 34 -1 50 -6 57 -19 9 -15 12 -15 20 -2 8 11
13 12 22 3 6 -6 18 -9 26 -6 7 3 28 -7 45 -23 29 -27 46 -45 138 -144 31 -33
32 -34 14 -5 -10 17 -29 49 -42 72 -52 93 -165 151 -307 158 -44 2 -89 2 -100
-1z"/>
<path d="M3415 1508 c-171 -22 -282 -84 -335 -188 -29 -57 -24 -73 5 -20 28
50 118 137 123 121 5 -16 29 -13 35 3 11 28 66 46 154 52 98 6 113 9 113 23 0
14 -31 17 -95 9z"/>
<path d="M3724 1488 c-3 -4 4 -8 15 -8 12 0 21 -6 21 -14 0 -8 6 -13 13 -13 6
1 28 -6 47 -15 19 -9 50 -23 68 -30 17 -7 32 -16 32 -20 0 -3 9 -4 19 -1 13 3
23 -2 30 -16 7 -12 16 -21 22 -21 6 0 7 6 3 13 -5 9 -4 9 5 1 10 -9 10 -21 1
-54 -14 -53 -6 -64 13 -17 19 45 37 56 37 23 0 -19 5 -26 19 -26 26 0 51 -42
51 -87 0 -30 2 -34 13 -24 10 10 14 1 23 -46 8 -41 12 -49 13 -27 3 97 -41
206 -107 264 -70 62 -319 149 -338 118z"/>
<path d="M3536 1416 c-297 -332 -451 -617 -432 -797 17 -164 142 -329 296
-389 77 -31 250 -39 339 -16 203 52 325 218 308 421 -9 101 -69 220 -153 300
l-63 61 1 89 c1 100 -16 155 -78 250 -30 46 -84 106 -84 93 0 -15 25 -77 42
-100 24 -35 23 -53 -4 -66 -20 -10 -18 -11 13 -6 l37 6 12 -52 c11 -45 10 -53
-4 -69 -16 -17 -15 -18 11 -13 l28 5 -25 -28 c-22 -25 -23 -27 -5 -21 11 5 27
10 35 14 9 3 5 -5 -8 -20 -22 -25 -23 -27 -5 -36 12 -8 15 -14 8 -21 -8 -8
-22 -5 -48 9 -20 11 -53 22 -74 26 -34 5 -138 -6 -216 -22 l-28 -6 35 93 c19
52 53 139 76 194 58 139 70 175 61 175 -5 0 -38 -33 -75 -74z m187 -442 c48
-16 58 -32 32 -54 -8 -7 -15 -18 -15 -24 0 -6 13 4 29 23 l29 35 61 -59 c73
-69 106 -134 122 -234 21 -139 -8 -233 -84 -270 -119 -58 -317 10 -414 142
-53 72 -76 148 -76 247 -1 113 35 176 116 207 40 16 136 10 200 -13z"/>
<path d="M4135 1468 c4 -13 11 -27 16 -33 5 -5 4 5 -2 23 -12 36 -24 44 -14
10z"/>
<path d="M4037 1247 c-4 -10 -7 -28 -6 -40 0 -21 1 -21 10 2 5 14 8 32 7 40
-3 13 -5 13 -11 -2z"/>
<path d="M347 638 c-113 -189 -209 -351 -213 -361 -6 -16 0 -18 76 -15 l83 3
151 253 c83 138 153 252 156 252 7 0 118 -183 122 -200 3 -15 -1 -16 -114 -18
l-78 -2 -30 -52 c-16 -29 -30 -56 -30 -60 0 -5 75 -8 168 -8 l167 0 51 -83 51
-82 86 -3 c48 -1 87 0 87 3 0 4 -224 379 -365 610 l-61 100 -50 3 -51 3 -206
-343z"/>
<path d="M1162 620 l3 -362 260 1 c261 2 376 10 411 29 53 28 91 98 94 172 3
77 1 86 -36 134 l-36 48 20 21 c64 69 54 216 -18 269 -39 28 -122 37 -422 44
l-278 7 2 -363z m523 216 c59 -6 85 -31 85 -81 0 -66 -9 -69 -249 -70 l-145 0
0 -58 c-1 -43 3 -58 14 -61 8 -3 85 -5 170 -5 89 0 166 -5 182 -12 34 -14 52
-56 39 -92 -20 -53 -43 -59 -266 -65 l-205 -5 0 229 0 229 162 -2 c90 -1 186
-4 213 -7z"/>
<path d="M2055 970 c-4 -6 -5 -168 -4 -360 l2 -350 74 0 73 0 0 360 0 360 -69
0 c-39 0 -73 -5 -76 -10z"/>
<path d="M2655 970 c-120 -6 -176 -29 -247 -102 -63 -65 -91 -138 -92 -243 -2
-149 66 -265 191 -327 l67 -33 242 -3 241 -4 -2 59 c-2 32 -3 61 -4 64 -1 4
-97 9 -213 11 -191 4 -217 6 -253 25 -81 42 -119 108 -119 203 0 97 41 160
129 201 35 16 67 19 241 19 149 0 204 3 211 13 6 6 10 37 9 67 l-1 55 -150 0
c-82 0 -195 -2 -250 -5z"/>
<path d="M4110 620 l0 -360 74 0 75 0 -2 358 -2 357 -72 3 -73 3 0 -361z"/>
<path d="M4390 621 l0 -361 75 0 76 0 -3 290 c-3 252 -1 290 12 291 8 0 104 0
213 -1 l199 -1 24 -27 c55 -62 54 -150 -2 -203 -25 -23 -32 -24 -202 -29
l-177 -5 -3 -57 -3 -58 131 0 131 0 47 -52 c26 -29 67 -74 92 -101 l45 -48 97
3 97 3 -95 104 -94 103 39 43 c56 60 73 100 79 177 6 89 -11 147 -60 203 -61
70 -91 75 -430 82 l-288 6 0 -362z"/>
<path d="M5310 621 l0 -361 74 0 74 0 0 292 1 292 212 -3 c236 -3 230 -1 265
-78 18 -42 18 -67 -3 -110 -31 -65 -56 -73 -245 -73 l-168 0 0 -60 0 -60 129
0 129 0 50 -52 c27 -29 68 -74 92 -100 l43 -48 99 0 100 0 -83 92 c-46 51 -90
99 -96 106 -18 18 -17 20 17 49 17 14 43 46 58 72 24 41 27 56 27 136 0 99
-12 134 -68 193 -53 56 -97 63 -419 69 l-288 6 0 -362z"/>
</g>
</svg>
