<svg version="1.1" id="Layer_1" xmlns="http://www.w3.org/2000/svg" xmlns:xlink="http://www.w3.org/1999/xlink" x="0px" y="0px"
	 width="100%" viewBox="0 0 500 350" enable-background="new 0 0 500 350" xml:space="preserve">
<path fill="#FEFEFE" opacity="1.000000" stroke="none" 
	d="
M367.000000,351.000000 
	C244.666687,351.000000 122.833359,351.000000 1.000033,351.000000 
	C1.000022,234.333359 1.000022,117.666725 1.000011,1.000064 
	C167.666611,1.000043 334.333221,1.000043 500.999878,1.000021 
	C500.999939,117.666603 500.999939,234.333206 500.999969,350.999908 
	C456.500000,351.000000 412.000000,351.000000 367.000000,351.000000 
M318.565979,94.792068 
	C318.275787,94.528496 317.999603,94.542648 317.063080,94.601715 
	C316.597748,94.505180 316.132446,94.408646 315.736145,93.969444 
	C315.535309,94.045143 315.334442,94.120842 314.561035,94.125534 
	C314.369537,94.143402 314.178070,94.161278 313.527344,93.903740 
	C313.351959,93.936745 313.176544,93.969757 312.276459,93.759148 
	C310.509552,93.608070 308.742615,93.457001 306.824280,92.528305 
	C306.879822,92.007721 306.935364,91.487144 307.770355,90.983788 
	C310.257812,89.523537 312.522278,88.746696 315.770386,89.555580 
	C318.458252,90.224937 321.700623,88.667526 324.697327,88.096725 
	C324.785492,87.361687 324.873627,86.626656 324.961761,85.891624 
	C321.640015,84.595436 318.318268,83.299255 314.257751,81.691818 
	C303.584351,79.375404 294.780640,83.576103 286.046295,89.079262 
	C285.872284,88.904922 285.698273,88.730591 285.532715,87.768967 
	C289.356018,73.412315 289.303375,59.994427 276.008423,49.087170 
	C274.479584,48.361050 272.950775,47.634930 271.421936,46.908813 
	C271.016754,47.201042 270.611542,47.493271 270.206360,47.785500 
	C271.680481,51.599205 271.155273,56.059956 274.953918,59.892658 
	C275.219879,61.944553 275.485840,63.996449 276.098358,66.480186 
	C276.377594,66.719551 276.656860,66.958923 276.938660,67.921761 
	C276.570831,69.923653 276.448242,72.019753 275.730957,73.887444 
	C275.375763,74.812263 273.925659,75.316589 272.626190,75.435562 
	C271.123322,73.276260 269.620422,71.116966 268.007782,68.355347 
	C267.686646,67.867874 267.365509,67.380394 266.728516,66.237122 
	C266.535645,66.089920 266.342773,65.942711 266.323273,65.791222 
	C266.323273,65.791222 266.166107,65.815422 265.767181,65.174049 
	C264.049591,63.820408 262.332031,62.466766 260.326172,60.638622 
	C259.544250,60.238567 258.762329,59.838512 257.478943,59.059708 
	C256.875916,58.945469 256.272888,58.831230 255.229507,58.190105 
	C254.147141,57.959221 253.064758,57.728336 251.330444,57.197498 
	C250.856918,57.218040 250.383392,57.238579 249.225311,56.879772 
	C245.559082,56.879772 241.892838,56.879772 238.226608,56.879772 
	C238.195511,57.396286 238.164429,57.912800 238.133331,58.429314 
	C239.784180,58.725628 241.435028,59.021946 243.752106,59.702385 
	C244.515274,59.765812 245.278442,59.829235 246.338287,60.587345 
	C248.228165,64.013229 249.748703,68.000916 255.476212,66.471756 
	C255.826385,66.531990 256.137024,66.447258 256.737244,66.863792 
	C255.065704,67.823685 253.394180,68.783569 250.841248,70.249603 
	C254.799820,71.360733 257.892059,72.228691 261.106354,73.778923 
	C260.358398,74.910500 259.610474,76.042076 258.603455,77.565598 
	C260.993500,79.712715 263.448395,81.918060 265.879456,84.737625 
	C266.679779,86.476074 272.546875,87.190117 266.353821,89.886337 
	C255.348282,82.222015 243.962891,78.180756 230.541534,86.126114 
	C227.274521,88.845955 224.007507,91.565796 220.740494,94.285637 
	C221.092896,94.949799 221.445297,95.613968 221.797699,96.278137 
	C222.852814,95.800583 223.868393,95.176765 224.971954,94.878578 
	C226.784088,94.388954 228.914154,93.360596 230.446106,93.893486 
	C234.042938,95.144661 237.179886,97.186600 241.436310,96.146446 
	C244.159271,95.481026 247.386536,95.730843 250.094162,96.545723 
	C251.969193,97.110023 253.343689,99.337425 254.175476,100.914673 
	C251.319153,102.049522 248.132950,102.708115 245.671494,104.413055 
	C239.532242,108.665421 233.877304,113.496506 233.456055,122.414055 
	C232.857391,127.157227 235.532867,124.482719 237.928345,124.043785 
	C239.339539,122.086967 240.750732,120.130150 242.852646,118.034393 
	C243.897232,117.400017 244.941803,116.765648 246.628845,115.925476 
	C247.120178,114.987427 247.611511,114.049377 248.281189,113.152878 
	C248.281189,113.152878 248.461990,113.181999 249.116104,113.124069 
	C251.642090,113.784050 254.044632,114.149277 255.449142,110.589539 
	C255.850113,110.632019 256.251099,110.674492 257.469269,110.834045 
	C259.203796,109.769928 260.938324,108.705818 262.923370,107.024055 
	C263.659943,106.566551 264.396515,106.109039 265.036987,105.865417 
	C265.036987,105.865417 264.962708,106.087837 265.112640,106.438812 
	C265.416473,106.374542 265.720276,106.310265 266.634430,105.940353 
	C267.582336,105.334221 268.530243,104.728096 270.142334,103.929886 
	C271.505280,103.627098 272.868195,103.324310 274.112701,103.525978 
	C274.122375,103.698433 274.132080,103.870888 273.689667,104.537018 
	C264.215668,116.942322 254.291077,129.036438 245.430817,141.865585 
	C239.801636,150.016296 236.953705,159.611526 238.455017,169.817444 
	C240.162140,181.422272 246.469086,189.986618 255.547195,195.926132 
	C246.434143,196.223526 237.187729,195.387253 227.945419,198.659775 
	C235.206314,204.807693 324.566071,204.534576 330.130005,198.046341 
	C326.544830,197.656631 323.486450,197.473541 320.491394,196.936935 
	C318.944855,196.659866 317.510834,195.754868 316.941254,195.029037 
	C319.683044,195.029037 322.424805,195.029037 324.956726,195.029037 
	C324.956726,176.582108 324.956726,158.914047 324.956726,141.283722 
	C321.180145,141.283722 317.778229,141.283722 314.125153,141.283722 
	C314.125153,159.321854 314.125153,177.055695 313.598328,195.460953 
	C307.947815,195.135651 302.297272,194.810349 297.105530,194.036285 
	C298.609711,192.657089 300.113892,191.277908 302.248840,189.592148 
	C316.375275,172.814819 309.364349,151.383179 293.834381,139.897202 
	C295.391541,132.148376 295.472351,124.607292 290.831085,117.687241 
	C289.373230,115.513634 288.012848,113.274635 287.005371,110.586372 
	C288.538300,110.832642 291.375427,110.978157 291.403442,111.340683 
	C291.700226,115.182732 294.167236,114.073944 296.307281,113.780457 
	C296.723633,113.723358 297.125336,113.559616 297.682373,113.403404 
	C297.602692,114.891212 297.536591,116.125710 297.470490,117.360214 
	C297.965546,117.156021 298.460632,116.951828 298.955688,116.747635 
	C299.649567,117.859543 300.343445,118.971451 300.660034,119.478767 
	C302.194366,118.968987 303.573517,118.510773 304.785431,118.775551 
	C304.777649,119.515160 304.769897,120.254776 304.362305,121.404343 
	C303.530975,124.431381 305.572784,123.284409 306.936981,123.926094 
	C307.959808,124.920326 308.982666,125.914558 310.021912,127.668159 
	C312.306000,129.493561 314.590057,131.318970 317.230896,133.779755 
	C317.825226,133.667053 318.906464,133.640884 318.944092,133.429260 
	C320.765228,123.182266 316.191589,113.493774 306.912445,107.209465 
	C307.443298,105.436378 307.974182,103.663292 308.352936,102.398239 
	C311.714203,104.688553 314.656891,106.693665 317.624817,108.715942 
	C317.960815,107.787956 318.280823,106.904083 318.519012,106.246277 
	C322.774353,107.656677 326.825439,108.999382 331.260803,110.895699 
	C331.852875,110.754097 332.444946,110.612495 333.244446,110.789200 
	C333.480652,110.885025 333.716827,110.980858 333.953033,111.076691 
	C333.652679,110.682549 333.352325,110.288406 333.167419,109.436768 
	C333.167419,109.436768 332.991486,108.998962 333.033966,108.336136 
	C332.384247,107.492516 331.734528,106.648895 330.888916,105.138748 
	C329.287170,103.344353 327.685455,101.549957 326.170837,99.886894 
	C326.170837,99.886894 326.204041,99.904259 325.767731,99.384636 
	C325.365112,99.190262 324.962494,98.995895 324.222900,98.259430 
	C323.846283,98.084435 323.469635,97.909447 322.828552,97.314880 
	C322.375641,97.145767 321.922729,96.976662 321.104645,96.303947 
	C320.357880,96.072037 319.611084,95.840134 318.886871,95.383171 
	C318.886871,95.383171 318.718109,95.232590 318.565979,94.792068 
M92.540062,173.499527 
	C92.540062,180.589828 92.540062,187.680130 92.540062,194.999390 
	C107.646790,194.999390 122.120384,195.317062 136.571533,194.884735 
	C145.800308,194.608643 151.227966,188.121078 151.494675,178.839233 
	C151.647675,173.514938 149.678772,169.345764 145.749481,166.946655 
	C147.384293,164.132721 149.357925,161.919144 150.035690,159.362091 
	C152.827286,148.830124 146.381775,141.250656 134.565186,141.022720 
	C126.083344,140.859100 117.595764,140.992981 109.110741,140.993698 
	C103.694305,140.994156 98.277878,140.993774 93.051575,140.993774 
	C92.772217,141.930801 92.598900,142.242355 92.597977,142.554428 
	C92.568451,152.536148 92.555603,162.517883 92.540062,173.499527 
M421.944794,180.018250 
	C434.473572,177.708557 444.181305,181.711746 450.917816,192.727539 
	C451.579834,193.810074 453.250000,194.818619 454.510437,194.894485 
	C458.894897,195.158386 463.304993,194.996445 467.705322,194.996445 
	C468.026550,194.486145 468.347809,193.975830 468.669067,193.465530 
	C463.167755,188.809677 457.666443,184.153839 451.924194,179.294113 
	C461.612427,172.783615 464.687225,165.191269 462.588257,155.521820 
	C460.800751,147.287231 455.762299,141.725693 447.346832,141.355804 
	C432.929749,140.722107 418.464600,141.180786 403.911438,141.180786 
	C403.911438,159.214294 403.911438,176.966034 403.911438,194.700897 
	C407.624298,194.700897 411.045380,194.700897 415.019165,194.700897 
	C415.019165,180.155640 415.019165,165.924805 415.019165,151.472473 
	C424.743958,151.472473 433.919464,151.175507 443.053040,151.663376 
	C445.609955,151.799957 448.969757,153.638077 450.362305,155.749969 
	C454.806366,162.489899 450.042358,170.795349 441.960785,170.953125 
	C434.666412,171.095566 427.367096,170.983215 418.985016,170.983215 
	C419.762756,174.384094 420.404205,177.188934 421.944794,180.018250 
M365.460754,170.987823 
	C360.665985,170.987823 355.871216,170.987823 350.617188,170.987823 
	C350.617188,173.036545 350.580872,174.671143 350.629608,176.303207 
	C350.663574,177.439957 350.814240,178.573212 350.939026,180.010681 
	C352.602081,180.010681 354.122437,180.238510 355.551941,179.974472 
	C366.569458,177.939468 374.728302,181.986862 380.691681,191.280334 
	C381.683655,192.826294 383.528961,194.641907 385.143005,194.815353 
	C389.637512,195.298294 394.217834,194.983078 398.764252,194.983078 
	C398.980286,194.540710 399.196350,194.098328 399.412384,193.655960 
	C394.038818,188.996140 388.665222,184.336319 382.899292,179.336273 
	C385.235596,177.736130 386.341858,177.093536 387.317383,176.291840 
	C394.257111,170.588730 394.959106,163.036713 393.360229,154.958771 
	C391.781464,146.982468 386.605865,141.817078 378.731506,141.462769 
	C364.174866,140.807755 349.567688,141.275421 334.933502,141.275421 
	C334.933502,159.282379 334.933502,177.013031 334.933502,194.687057 
	C338.678314,194.687057 342.095428,194.687057 346.062408,194.687057 
	C346.062408,180.146698 346.062408,165.929153 346.062408,151.505264 
	C355.450348,151.505264 364.273407,151.449753 373.095428,151.523972 
	C379.405945,151.577057 382.872803,154.994202 382.890137,160.938477 
	C382.907562,166.907593 379.403168,170.666489 373.434265,170.959595 
	C371.107452,171.073853 368.770630,170.984604 365.460754,170.987823 
M84.058815,195.017731 
	C84.970520,194.958572 85.882217,194.899414 87.252754,194.810486 
	C86.665939,193.584518 86.383598,192.840469 85.978424,192.170731 
	C76.331406,176.224701 66.718300,160.257812 56.987843,144.362778 
	C53.581081,138.797699 48.343292,138.905411 44.907261,144.508789 
	C40.035633,152.453262 35.267002,160.460892 30.453480,168.441010 
	C25.248110,177.070740 20.041729,185.699860 14.420897,195.016968 
	C16.792728,195.016968 18.275549,194.807617 19.678608,195.053482 
	C25.533251,196.079330 28.902576,193.759155 31.744215,188.424286 
	C37.483009,177.650299 44.093155,167.340454 50.713703,156.217941 
	C54.202248,162.030823 57.295029,167.184235 60.611496,172.710388 
	C52.751289,173.881500 43.017242,169.349319 41.182362,182.015991 
	C48.343533,182.015991 55.448677,181.834991 62.532478,182.143677 
	C64.295349,182.220490 66.272942,183.584137 67.635948,184.893372 
	C69.027519,186.230057 69.991302,188.137939 70.776924,189.953873 
	C72.506699,193.952148 75.186653,195.927216 79.675926,195.044189 
	C80.798073,194.823471 82.002251,195.019775 84.058815,195.017731 
M193.916855,178.407776 
	C189.675980,172.405197 189.132751,165.998474 192.545929,159.575363 
	C195.868393,153.322998 201.511459,151.234085 208.447296,151.428848 
	C217.391495,151.679993 226.348114,151.490005 235.338226,151.490005 
	C235.338226,147.639618 235.338226,144.420822 235.338226,140.989914 
	C224.813980,140.989914 214.655716,140.939774 204.498138,141.002197 
	C190.792648,141.086395 180.716095,150.131454 179.156555,163.643311 
	C177.414124,178.739777 185.567505,192.137283 199.340637,194.096329 
	C209.961700,195.607025 220.913010,194.809601 231.718262,194.992828 
	C232.971924,195.014099 234.230530,194.743820 235.375580,194.620682 
	C235.375580,191.139816 235.375580,188.058746 235.375580,184.529480 
	C225.932571,184.529480 216.799164,184.404541 207.671371,184.576996 
	C202.320358,184.678085 197.884537,183.069458 193.916855,178.407776 
M171.313507,193.352280 
	C171.313507,176.063034 171.313507,158.773788 171.313507,141.346725 
	C167.377487,141.346725 163.841064,141.346725 160.278687,141.346725 
	C160.278687,159.308777 160.278687,176.910873 160.278687,195.250854 
	C164.074326,194.922134 167.607986,194.616089 171.313507,193.352280 
z"/>
<path fill="#634222" opacity="1.000000" stroke="none" 
	d="
M92.540154,172.999573 
	C92.555603,162.517883 92.568451,152.536148 92.597977,142.554428 
	C92.598900,142.242355 92.772217,141.930801 93.051575,140.993774 
	C98.277878,140.993774 103.694305,140.994156 109.110741,140.993698 
	C117.595764,140.992981 126.083344,140.859100 134.565186,141.022720 
	C146.381775,141.250656 152.827286,148.830124 150.035690,159.362091 
	C149.357925,161.919144 147.384293,164.132721 145.749481,166.946655 
	C149.678772,169.345764 151.647675,173.514938 151.494675,178.839233 
	C151.227966,188.121078 145.800308,194.608643 136.571533,194.884735 
	C122.120384,195.317062 107.646790,194.999390 92.540062,194.999390 
	C92.540062,187.680130 92.540062,180.589828 92.540154,172.999573 
M118.524315,163.014847 
	C123.513458,162.993057 128.513077,163.158401 133.487854,162.880020 
	C136.521805,162.710251 138.860641,161.215576 139.073273,157.659454 
	C139.282562,154.159424 137.414536,151.993561 134.240799,151.915451 
	C124.202812,151.668488 114.154922,151.824280 104.177109,151.824280 
	C104.177109,162.850098 104.177109,173.556717 104.177109,184.143280 
	C104.875793,184.363464 105.184288,184.544617 105.493530,184.545914 
	C113.643074,184.580093 121.792870,184.636398 129.942245,184.601486 
	C136.396790,184.573822 140.063782,182.185181 140.049591,178.172791 
	C140.034531,173.914917 136.923447,171.997604 129.982986,171.990128 
	C122.919319,171.982529 115.855637,171.988449 108.882629,171.988449 
	C108.882629,168.611511 108.882629,166.017426 108.882629,163.014877 
	C111.939285,163.014877 114.735931,163.014877 118.524315,163.014847 
z"/>
<path fill="#634323" opacity="1.000000" stroke="none" 
	d="
M421.495209,180.006012 
	C420.404205,177.188934 419.762756,174.384094 418.985016,170.983215 
	C427.367096,170.983215 434.666412,171.095566 441.960785,170.953125 
	C450.042358,170.795349 454.806366,162.489899 450.362305,155.749969 
	C448.969757,153.638077 445.609955,151.799957 443.053040,151.663376 
	C433.919464,151.175507 424.743958,151.472473 415.019165,151.472473 
	C415.019165,165.924805 415.019165,180.155640 415.019165,194.700897 
	C411.045380,194.700897 407.624298,194.700897 403.911438,194.700897 
	C403.911438,176.966034 403.911438,159.214294 403.911438,141.180786 
	C418.464600,141.180786 432.929749,140.722107 447.346832,141.355804 
	C455.762299,141.725693 460.800751,147.287231 462.588257,155.521820 
	C464.687225,165.191269 461.612427,172.783615 451.924194,179.294113 
	C457.666443,184.153839 463.167755,188.809677 468.669067,193.465530 
	C468.347809,193.975830 468.026550,194.486145 467.705322,194.996445 
	C463.304993,194.996445 458.894897,195.158386 454.510437,194.894485 
	C453.250000,194.818619 451.579834,193.810074 450.917816,192.727539 
	C444.181305,181.711746 434.473572,177.708557 421.495209,180.006012 
z"/>
<path fill="#634323" opacity="1.000000" stroke="none" 
	d="
M365.949585,170.987930 
	C368.770630,170.984604 371.107452,171.073853 373.434265,170.959595 
	C379.403168,170.666489 382.907562,166.907593 382.890137,160.938477 
	C382.872803,154.994202 379.405945,151.577057 373.095428,151.523972 
	C364.273407,151.449753 355.450348,151.505264 346.062408,151.505264 
	C346.062408,165.929153 346.062408,180.146698 346.062408,194.687057 
	C342.095428,194.687057 338.678314,194.687057 334.933502,194.687057 
	C334.933502,177.013031 334.933502,159.282379 334.933502,141.275421 
	C349.567688,141.275421 364.174866,140.807755 378.731506,141.462769 
	C386.605865,141.817078 391.781464,146.982468 393.360229,154.958771 
	C394.959106,163.036713 394.257111,170.588730 387.317383,176.291840 
	C386.341858,177.093536 385.235596,177.736130 382.899292,179.336273 
	C388.665222,184.336319 394.038818,188.996140 399.412384,193.655960 
	C399.196350,194.098328 398.980286,194.540710 398.764252,194.983078 
	C394.217834,194.983078 389.637512,195.298294 385.143005,194.815353 
	C383.528961,194.641907 381.683655,192.826294 380.691681,191.280334 
	C374.728302,181.986862 366.569458,177.939468 355.551941,179.974472 
	C354.122437,180.238510 352.602081,180.010681 350.939026,180.010681 
	C350.814240,178.573212 350.663574,177.439957 350.629608,176.303207 
	C350.580872,174.671143 350.617188,173.036545 350.617188,170.987823 
	C355.871216,170.987823 360.665985,170.987823 365.949585,170.987930 
z"/>
<path fill="#6D4A3A" opacity="1.000000" stroke="none" 
	d="
M301.618073,189.898712 
	C300.113892,191.277908 298.609711,192.657089 296.529297,194.351334 
	C292.151825,196.177277 288.464050,198.161301 284.526917,199.105331 
	C274.889130,201.416229 265.563812,199.689987 256.564148,195.834290 
	C246.469086,189.986618 240.162140,181.422272 238.455017,169.817444 
	C236.953705,159.611526 239.801636,150.016296 245.430817,141.865585 
	C254.291077,129.036438 264.215668,116.942322 274.298065,104.300735 
	C275.429871,105.055367 275.953247,106.046280 276.137451,107.096008 
	C274.836365,108.093880 273.588776,108.873924 272.962280,109.999626 
	C270.305634,114.773102 267.676483,119.574326 265.324677,124.502571 
	C259.435394,136.843552 254.704025,149.359131 256.869934,163.588547 
	C258.947601,177.238144 270.675598,189.627518 284.524567,190.887222 
	C290.145935,191.398560 295.915771,190.277191 301.618073,189.898712 
z"/>
<path fill="#644424" opacity="1.000000" stroke="none" 
	d="
M83.613770,195.021072 
	C82.002251,195.019775 80.798073,194.823471 79.675926,195.044189 
	C75.186653,195.927216 72.506699,193.952148 70.776924,189.953873 
	C69.991302,188.137939 69.027519,186.230057 67.635948,184.893372 
	C66.272942,183.584137 64.295349,182.220490 62.532478,182.143677 
	C55.448677,181.834991 48.343533,182.015991 41.182362,182.015991 
	C43.017242,169.349319 52.751289,173.881500 60.611496,172.710388 
	C57.295029,167.184235 54.202248,162.030823 50.713703,156.217941 
	C44.093155,167.340454 37.483009,177.650299 31.744215,188.424286 
	C28.902576,193.759155 25.533251,196.079330 19.678608,195.053482 
	C18.275549,194.807617 16.792728,195.016968 14.420897,195.016968 
	C20.041729,185.699860 25.248110,177.070740 30.453480,168.441010 
	C35.267002,160.460892 40.035633,152.453262 44.907261,144.508789 
	C48.343292,138.905411 53.581081,138.797699 56.987843,144.362778 
	C66.718300,160.257812 76.331406,176.224701 85.978424,192.170731 
	C86.383598,192.840469 86.665939,193.584518 87.252754,194.810486 
	C85.882217,194.899414 84.970520,194.958572 83.613770,195.021072 
z"/>
<path fill="#644424" opacity="1.000000" stroke="none" 
	d="
M194.145050,178.709137 
	C197.884537,183.069458 202.320358,184.678085 207.671371,184.576996 
	C216.799164,184.404541 225.932571,184.529480 235.375580,184.529480 
	C235.375580,188.058746 235.375580,191.139816 235.375580,194.620682 
	C234.230530,194.743820 232.971924,195.014099 231.718262,194.992828 
	C220.913010,194.809601 209.961700,195.607025 199.340637,194.096329 
	C185.567505,192.137283 177.414124,178.739777 179.156555,163.643311 
	C180.716095,150.131454 190.792648,141.086395 204.498138,141.002197 
	C214.655716,140.939774 224.813980,140.989914 235.338226,140.989914 
	C235.338226,144.420822 235.338226,147.639618 235.338226,151.490005 
	C226.348114,151.490005 217.391495,151.679993 208.447296,151.428848 
	C201.511459,151.234085 195.868393,153.322998 192.545929,159.575363 
	C189.132751,165.998474 189.675980,172.405197 194.145050,178.709137 
z"/>
<path fill="#4C3128" opacity="1.000000" stroke="none" 
	d="
M301.933472,189.745438 
	C295.915771,190.277191 290.145935,191.398560 284.524567,190.887222 
	C270.675598,189.627518 258.947601,177.238144 256.869934,163.588547 
	C254.704025,149.359131 259.435394,136.843552 265.324677,124.502571 
	C267.676483,119.574326 270.305634,114.773102 272.962280,109.999626 
	C273.588776,108.873924 274.836365,108.093880 276.377136,107.258148 
	C277.278992,107.567818 277.601959,107.774170 277.959045,107.989883 
	C277.993195,107.999229 278.009460,107.930283 277.635193,107.829605 
	C276.602814,108.151100 275.589081,108.424019 275.339905,109.017769 
	C271.512970,118.137207 267.785583,127.298416 264.308563,135.782562 
	C270.997528,135.634628 276.947510,135.503036 282.931885,135.711670 
	C283.294434,137.355743 283.622589,138.659592 283.538818,139.982834 
	C272.819580,136.578201 263.326202,140.964722 261.532654,150.352280 
	C259.794861,159.448029 261.133392,168.289261 267.798889,175.024414 
	C271.871735,179.139832 277.290710,181.958420 282.220947,185.182327 
	C291.850952,191.479446 305.122925,183.897903 305.275391,172.647583 
	C305.440643,160.452545 301.466705,150.677032 291.845154,142.884613 
	C292.670868,141.888947 293.421356,141.278427 294.171875,140.667908 
	C309.364349,151.383179 316.375275,172.814819 301.933472,189.745438 
z"/>
<path fill="#6A973C" opacity="1.000000" stroke="none" 
	d="
M276.314728,49.709641 
	C289.303375,59.994427 289.356018,73.412315 285.336548,88.416733 
	C285.598419,89.259972 286.056519,89.455460 286.514587,89.650940 
	C294.780640,83.576103 303.584351,79.375404 314.739990,82.158409 
	C316.334961,83.340355 317.447662,84.055702 318.560394,84.771049 
	C318.411346,85.156036 318.262329,85.541031 318.113281,85.926018 
	C315.459076,85.256111 312.804840,84.586212 309.869476,83.845345 
	C310.206146,84.933685 310.419250,85.622612 310.705750,86.548737 
	C308.923950,86.397400 307.316528,86.260872 305.620331,86.116806 
	C306.171539,87.768845 306.575195,88.978691 306.668152,90.113708 
	C305.588959,89.711258 304.820465,89.383629 303.865723,88.841553 
	C303.515259,88.532967 303.351013,88.438835 303.064331,88.105698 
	C298.744476,84.720390 299.186859,89.154503 297.687317,90.790405 
	C296.596497,90.460648 295.802673,90.241684 294.809174,89.788315 
	C292.096161,91.713142 289.582855,93.872360 286.696472,96.055725 
	C285.401581,96.477928 284.479767,96.875977 283.218811,97.261383 
	C281.452942,97.827515 280.026184,98.406288 278.351837,99.085503 
	C278.215698,97.855843 278.110748,96.908150 278.278076,95.878235 
	C280.589691,93.729996 279.233673,93.352257 276.941315,93.217491 
	C276.355072,93.150757 276.119720,93.132156 275.578674,93.026154 
	C274.853638,92.877029 274.434326,92.815292 273.816467,92.547173 
	C272.302460,88.078377 271.234467,83.716110 269.571228,79.594032 
	C268.688446,77.406204 269.178833,73.548820 264.884033,73.811951 
	C264.871887,73.577515 264.939178,73.112846 264.860870,72.861732 
	C264.499146,72.419228 264.215698,72.227829 263.587891,72.054237 
	C262.554382,72.101410 261.865295,72.130783 260.988159,71.972382 
	C261.625153,71.169693 262.450134,70.554764 263.958435,69.430550 
	C261.163910,68.241364 258.786011,67.229469 256.408112,66.217567 
	C256.137024,66.447258 255.826385,66.531990 255.420349,66.065430 
	C256.436554,65.178680 257.508636,64.698265 259.841064,63.653084 
	C257.004456,63.223835 255.458420,63.173122 254.031601,62.734592 
	C251.332123,61.904926 248.701080,60.852520 246.041611,59.892666 
	C245.278442,59.829235 244.515274,59.765812 243.544952,59.205055 
	C245.528488,58.224854 247.719177,57.741985 249.909866,57.259117 
	C250.383392,57.238579 250.856918,57.218040 251.790680,57.679337 
	C253.390549,58.346447 254.530212,58.531719 255.669861,58.716991 
	C256.272888,58.831230 256.875916,58.945469 257.800232,59.529228 
	C258.952484,60.370205 259.783478,60.741665 260.614441,61.113125 
	C262.332031,62.466766 264.049591,63.820408 265.969604,65.474487 
	C266.172058,65.774933 266.149902,65.795494 266.149902,65.795494 
	C266.342773,65.942711 266.535645,66.089920 266.891327,66.881912 
	C267.408600,68.003700 267.763092,68.480690 268.117554,68.957672 
	C269.620422,71.116966 271.123322,73.276260 272.760193,76.021576 
	C272.958801,77.002441 273.023407,77.397308 273.100342,78.009995 
	C273.185333,78.522781 273.346497,78.756790 273.760590,79.245926 
	C274.580536,80.773201 275.235992,81.984406 275.939056,83.543983 
	C276.362579,85.212074 276.738495,86.531792 276.983337,88.146637 
	C276.823364,89.121902 276.794434,89.802032 276.765503,90.482162 
	C277.181061,89.673729 277.596649,88.865288 278.355164,87.997833 
	C281.564453,86.126808 281.641693,83.721184 280.095093,80.774719 
	C280.012726,80.561935 279.809784,80.153206 279.862671,79.814850 
	C279.940460,79.249550 279.965302,79.022591 280.211121,78.832596 
	C280.432129,78.869560 280.880035,78.882874 281.100830,78.880341 
	C281.418579,78.768593 281.515503,78.659370 281.612457,78.550148 
	C281.404877,78.371834 281.197266,78.193520 280.830139,77.756577 
	C280.122101,77.313187 279.573639,77.128441 279.030640,76.973648 
	C279.036102,77.003601 279.082184,76.963005 279.030518,76.662560 
	C278.977600,75.484650 278.616150,74.342194 279.034576,73.773483 
	C281.438782,70.505592 280.065430,68.610687 276.936096,67.198288 
	C276.656860,66.958923 276.377594,66.719551 276.115112,65.979958 
	C277.602661,65.479729 279.073425,65.479729 280.793793,65.479729 
	C279.637726,63.313995 278.760803,61.671185 278.204987,59.970478 
	C281.447021,58.579277 280.510376,56.924225 278.781708,55.417660 
	C277.108856,53.959728 275.268341,52.694168 273.046509,50.996502 
	C274.546997,50.405689 275.430847,50.057663 276.314728,49.709641 
z"/>
<path fill="#634323" opacity="1.000000" stroke="none" 
	d="
M171.227585,193.831161 
	C167.607986,194.616089 164.074326,194.922134 160.278687,195.250854 
	C160.278687,176.910873 160.278687,159.308777 160.278687,141.346725 
	C163.841064,141.346725 167.377487,141.346725 171.313507,141.346725 
	C171.313507,158.773788 171.313507,176.063034 171.227585,193.831161 
z"/>
<path fill="#634323" opacity="1.000000" stroke="none" 
	d="
M314.125153,194.789551 
	C314.125153,177.055695 314.125153,159.321854 314.125153,141.283722 
	C317.778229,141.283722 321.180145,141.283722 324.956726,141.283722 
	C324.956726,158.914047 324.956726,176.582108 324.956726,195.029037 
	C322.424805,195.029037 319.683044,195.029037 316.174255,194.988510 
	C314.979889,194.895172 314.552521,194.842361 314.125153,194.789551 
z"/>
<path fill="#E4E2E1" opacity="1.000000" stroke="none" 
	d="
M313.861755,195.125244 
	C314.552521,194.842361 314.979889,194.895172 315.716614,195.040771 
	C317.510834,195.754868 318.944855,196.659866 320.491394,196.936935 
	C323.486450,197.473541 326.544830,197.656631 330.130005,198.046341 
	C324.566071,204.534576 235.206314,204.807693 227.945419,198.659775 
	C237.187729,195.387253 246.434143,196.223526 256.055664,195.880219 
	C265.563812,199.689987 274.889130,201.416229 284.526917,199.105331 
	C288.464050,198.161301 292.151825,196.177277 296.299927,194.575714 
	C302.297272,194.810349 307.947815,195.135651 313.861755,195.125244 
z"/>
<path fill="#649234" opacity="1.000000" stroke="none" 
	d="
M315.667114,94.312119 
	C316.132446,94.408646 316.597748,94.505180 317.521362,94.867020 
	C317.979614,95.132324 318.335266,95.282516 318.335266,95.282516 
	C318.335266,95.282516 318.718109,95.232590 318.718109,95.232590 
	C318.718109,95.232590 318.886871,95.383171 319.020386,95.778427 
	C319.925873,96.384972 320.697845,96.596260 321.469818,96.807556 
	C321.922729,96.976662 322.375641,97.145767 323.093719,97.828026 
	C323.759216,98.494621 324.159546,98.648071 324.559875,98.801529 
	C324.962494,98.995895 325.365112,99.190262 325.976379,99.611664 
	C326.184998,99.838699 326.083710,99.755562 326.083710,99.755562 
	C327.685455,101.549957 329.287170,103.344353 330.973267,105.809601 
	C331.702209,107.319962 332.346832,108.159470 332.991486,108.998962 
	C332.991486,108.998962 333.167419,109.436768 333.078186,109.809036 
	C332.988953,110.181305 333.037018,110.470894 333.037018,110.470894 
	C332.444946,110.612495 331.852875,110.754097 331.003448,110.270752 
	C327.496185,104.606781 323.705780,100.341820 316.637177,99.704323 
	C317.108582,101.578033 317.453491,102.949043 317.798401,104.320045 
	C315.746552,102.992043 314.849457,100.154182 313.251526,99.680473 
	C309.341705,98.521378 305.108124,98.454498 300.792847,97.714569 
	C299.732147,98.656433 298.883392,99.831787 298.071655,101.373138 
	C301.080231,103.822792 304.051697,105.906448 307.023193,107.990097 
	C316.191589,113.493774 320.765228,123.182266 318.944092,133.429260 
	C318.906464,133.640884 317.825226,133.667053 317.086731,133.054901 
	C316.008820,129.037994 315.075073,125.745941 313.849060,121.423660 
	C313.171875,123.653488 312.822144,124.805107 312.304840,126.508507 
	C312.077759,123.705719 311.901031,121.524391 311.724304,119.343063 
	C311.269257,119.341064 310.814209,119.339073 310.359131,119.337074 
	C310.241241,121.860985 310.123352,124.384888 310.005493,126.908798 
	C308.982666,125.914558 307.959808,124.920326 307.002075,123.174080 
	C307.839508,120.400429 308.611816,118.378784 309.384094,116.357147 
	C309.051086,116.232979 308.718079,116.108803 308.385071,115.984634 
	C307.177429,117.654549 305.969757,119.324463 304.762146,120.994385 
	C304.769897,120.254776 304.777649,119.515160 305.045044,118.102707 
	C305.123901,116.319336 305.325867,114.602325 304.695435,114.204544 
	C302.134155,112.588394 299.384796,111.212914 296.576660,110.060959 
	C293.544525,108.817085 290.369415,107.921753 287.183472,106.650391 
	C287.110321,106.426414 286.996094,105.969223 286.857239,105.719208 
	C286.185211,105.285469 285.652039,105.101738 285.097107,104.585945 
	C283.858215,102.073082 284.977234,101.702492 287.206451,101.936264 
	C288.357452,101.619774 289.175110,101.300827 290.129089,101.264008 
	C291.507446,101.699455 292.749451,101.852776 294.340118,101.966820 
	C295.482269,100.962746 296.275787,99.997948 297.069275,99.033150 
	C296.745941,98.781342 296.422638,98.529533 296.099304,98.277733 
	C295.399933,98.855858 294.700592,99.433983 293.753418,99.731476 
	C292.002899,99.303032 290.500153,99.155212 288.748444,99.102806 
	C288.032776,99.451172 287.566071,99.704124 287.010529,99.806778 
	C286.921692,99.656471 286.825317,99.320854 286.877686,98.910385 
	C286.967072,97.951195 287.004028,97.402473 287.428955,96.878014 
	C291.510773,96.239365 295.204681,95.576454 299.235901,94.939629 
	C300.374542,94.695190 301.175812,94.424667 302.346375,94.089447 
	C304.135712,93.785149 305.555695,93.545540 306.975708,93.305931 
	C308.742615,93.457001 310.509552,93.608070 312.706909,94.050583 
	C313.420441,94.287735 313.703522,94.233452 313.986572,94.179169 
	C314.178070,94.161278 314.369537,94.143402 314.964722,94.263000 
	C315.368378,94.400467 315.667114,94.312119 315.667114,94.312119 
z"/>
<path fill="#689639" opacity="1.000000" stroke="none" 
	d="
M231.311707,86.212280 
	C243.962891,78.180756 255.348282,82.222015 266.723633,90.339737 
	C268.703827,91.864426 270.314178,92.935699 272.036926,94.259232 
	C272.461182,94.964928 272.773071,95.418365 273.102478,96.280518 
	C273.208771,96.947090 273.297577,97.204948 273.021912,97.420502 
	C271.508575,97.972549 270.359711,98.566917 269.168701,99.111328 
	C269.126556,99.061378 269.018738,98.987473 268.945557,98.628349 
	C266.640747,97.485512 264.409119,96.701805 261.819733,95.802727 
	C260.976898,95.793068 260.491882,95.898766 259.770386,95.833038 
	C258.361023,95.046196 257.188171,94.430786 255.670990,93.822304 
	C254.435608,94.391899 253.544510,94.954575 252.653412,95.517242 
	C252.695679,95.136414 252.737946,94.755585 252.780197,94.374756 
	C251.849854,94.242302 250.919495,94.109856 250.004303,93.999290 
	C250.019470,94.021172 250.050674,94.064316 249.951004,93.715851 
	C249.119659,92.532257 248.279068,90.913185 247.675079,90.997101 
	C244.995728,91.369385 242.384247,92.230171 239.383148,93.008995 
	C240.109451,91.350929 240.694855,90.014503 241.280258,88.678078 
	C237.587509,93.703194 233.073822,90.398750 227.913483,90.652687 
	C229.453918,88.639816 230.382812,87.426048 231.311707,86.212280 
z"/>
<path fill="#69933B" opacity="1.000000" stroke="none" 
	d="
M294.003113,140.282562 
	C293.421356,141.278427 292.670868,141.888947 291.566406,143.058258 
	C289.134613,145.096512 287.056763,146.575958 284.967590,147.788055 
	C284.950256,147.342392 284.944244,147.164078 285.231018,146.797516 
	C285.366058,144.307205 288.241699,141.287155 283.950745,139.963425 
	C283.622589,138.659592 283.294434,137.355743 283.280396,135.559113 
	C284.428436,133.055313 285.262329,131.044312 286.378418,128.876251 
	C286.181000,126.213333 285.701416,123.707466 285.371429,121.075195 
	C285.482147,120.745277 285.443298,120.541756 285.404449,120.338242 
	C285.190643,120.473434 284.976837,120.608627 284.540466,120.781021 
	C284.317871,120.818230 283.930817,121.050415 283.605255,121.071686 
	C282.789520,121.075279 281.912720,121.176437 281.865448,121.022621 
	C280.528900,116.674255 279.276031,112.300163 278.009460,107.930283 
	C278.009460,107.930283 277.993195,107.999229 278.302521,108.021271 
	C279.713867,107.531677 280.815887,107.020042 281.901672,106.515945 
	C282.937653,107.382553 283.948639,108.228233 284.995026,109.360565 
	C285.556274,110.120003 286.082062,110.592781 286.607880,111.065559 
	C288.012848,113.274635 289.373230,115.513634 290.831085,117.687241 
	C295.472351,124.607292 295.391541,132.148376 294.003113,140.282562 
z"/>
<path fill="#729C46" opacity="1.000000" stroke="none" 
	d="
M269.478149,104.121964 
	C268.530243,104.728096 267.582336,105.334221 266.079987,105.944916 
	C265.337921,105.995605 265.150299,106.041725 264.962708,106.087837 
	C264.962708,106.087837 265.036987,105.865417 264.984680,105.450836 
	C262.986359,105.345436 261.040314,105.654633 259.009583,105.762215 
	C258.572540,106.025452 258.220184,106.490295 257.587830,106.814232 
	C254.843460,107.463478 252.379044,108.253624 249.686279,108.901352 
	C249.125946,110.233284 248.793961,111.707642 248.461975,113.181999 
	C248.461990,113.181999 248.281189,113.152878 247.901733,112.988052 
	C246.870132,111.968811 246.217987,111.114395 245.053055,109.588135 
	C244.470322,111.604309 244.177002,112.619164 243.725922,113.857498 
	C243.391357,114.399643 243.214539,114.718323 242.779175,114.844948 
	C242.228989,113.728943 241.937332,112.804985 241.645691,111.881035 
	C241.265701,111.778313 240.885712,111.675598 240.505722,111.572876 
	C240.021576,113.722153 239.537430,115.871422 238.990906,118.336235 
	C238.845291,119.071823 238.762070,119.491867 238.385803,119.980301 
	C237.728302,120.697975 237.363831,121.347260 236.932037,122.227180 
	C236.864716,122.457825 236.639633,122.882378 236.350433,122.851532 
	C235.327255,122.538841 234.593277,122.256981 233.859283,121.975121 
	C233.877304,113.496506 239.532242,108.665421 245.671494,104.413055 
	C248.132950,102.708115 251.319153,102.049522 254.954300,100.944183 
	C257.800781,100.637856 259.868408,100.302010 262.332855,99.945480 
	C264.826019,99.612358 266.922363,99.299919 269.018738,98.987473 
	C269.018738,98.987473 269.126556,99.061378 269.309937,99.403099 
	C269.488281,101.203865 269.483215,102.662918 269.478149,104.121964 
z"/>
<path fill="#709A45" opacity="1.000000" stroke="none" 
	d="
M306.967834,107.599785 
	C304.051697,105.906448 301.080231,103.822792 298.348694,101.236374 
	C299.394043,99.805077 300.199432,98.876556 301.004822,97.948044 
	C305.108124,98.454498 309.341705,98.521378 313.251526,99.680473 
	C314.849457,100.154182 315.746552,102.992043 317.798401,104.320045 
	C317.453491,102.949043 317.108582,101.578033 316.637177,99.704323 
	C323.705780,100.341820 327.496185,104.606781 330.811310,109.993950 
	C326.825439,108.999382 322.774353,107.656677 318.519012,106.246277 
	C318.280823,106.904083 317.960815,107.787956 317.624817,108.715942 
	C314.656891,106.693665 311.714203,104.688553 308.352936,102.398239 
	C307.974182,103.663292 307.443298,105.436378 306.967834,107.599785 
z"/>
<path fill="#DCEDCD" opacity="1.000000" stroke="none" 
	d="
M261.936066,99.966171 
	C259.868408,100.302010 257.800781,100.637856 255.337494,100.897705 
	C253.343689,99.337425 251.969193,97.110023 250.094162,96.545723 
	C247.386536,95.730843 244.159271,95.481026 241.436310,96.146446 
	C237.179886,97.186600 234.042938,95.144661 230.446106,93.893486 
	C228.914154,93.360596 226.784088,94.388954 224.971954,94.878578 
	C223.868393,95.176765 222.852814,95.800583 221.797699,96.278137 
	C221.445297,95.613968 221.092896,94.949799 220.740494,94.285637 
	C224.007507,91.565796 227.274521,88.845955 230.926620,86.169197 
	C230.382812,87.426048 229.453918,88.639816 227.913483,90.652687 
	C233.073822,90.398750 237.587509,93.703194 241.280258,88.678078 
	C240.694855,90.014503 240.109451,91.350929 239.383148,93.008995 
	C242.384247,92.230171 244.995728,91.369385 247.675079,90.997101 
	C248.279068,90.913185 249.119659,92.532257 249.740799,93.615234 
	C249.556976,94.106026 249.483704,94.348953 249.410431,94.591881 
	C249.603333,94.387054 249.796234,94.182228 249.989151,93.977409 
	C250.919495,94.109856 251.849854,94.242302 252.780197,94.374756 
	C252.737946,94.755585 252.695679,95.136414 252.653412,95.517242 
	C253.544510,94.954575 254.435608,94.391899 255.669342,94.167084 
	C257.126007,95.584435 257.340973,99.059212 260.006836,96.004471 
	C260.491882,95.898766 260.976898,95.793068 261.780334,96.210220 
	C262.044495,97.810776 261.990295,98.888474 261.936066,99.966171 
z"/>
<path fill="#B8D09D" opacity="1.000000" stroke="none" 
	d="
M284.959595,109.073921 
	C283.948639,108.228233 282.937653,107.382553 281.901672,106.515945 
	C280.815887,107.020042 279.713867,107.531677 278.268372,108.011925 
	C277.601959,107.774170 277.278992,107.567818 276.716370,107.199326 
	C275.953247,106.046280 275.429871,105.055367 274.524109,104.053909 
	C274.132080,103.870888 274.122375,103.698433 274.486450,103.239426 
	C274.885559,101.678047 274.910950,100.403229 275.111816,99.014572 
	C275.364594,98.786507 275.531311,98.604553 275.504517,98.569153 
	C275.346283,98.360268 275.143097,98.185455 274.979797,97.999275 
	C275.004547,97.999382 274.981293,98.043106 274.983459,97.795792 
	C274.985657,97.548485 274.942108,97.055817 275.238434,96.942703 
	C275.794189,96.501465 276.053619,96.173355 276.600250,95.882980 
	C277.276672,95.936996 277.665894,95.953278 278.040131,95.984390 
	C278.025146,95.999214 278.005829,95.960464 278.005829,95.960464 
	C278.110748,96.908150 278.215698,97.855843 278.351837,99.085503 
	C280.026184,98.406288 281.452942,97.827515 283.367004,97.568726 
	C284.844666,98.366096 285.834991,98.843475 286.825317,99.320854 
	C286.825317,99.320854 286.921692,99.656471 286.991211,100.138916 
	C286.998169,101.058838 286.935608,101.496323 286.873047,101.933807 
	C284.977234,101.702492 283.858215,102.073082 285.155487,104.900612 
	C285.822449,105.687973 286.409271,105.828598 286.996094,105.969223 
	C286.996094,105.969223 287.110321,106.426414 287.067078,106.984512 
	C286.335754,108.053040 285.647675,108.563484 284.959595,109.073921 
z"/>
<path fill="#84A95F" opacity="1.000000" stroke="none" 
	d="
M284.995026,109.360580 
	C285.647675,108.563484 286.335754,108.053040 287.140228,107.208488 
	C290.369415,107.921753 293.544525,108.817085 296.576660,110.060959 
	C299.384796,111.212914 302.134155,112.588394 304.695435,114.204544 
	C305.325867,114.602325 305.123901,116.319336 305.128632,117.741211 
	C303.573517,118.510773 302.194366,118.968987 300.660034,119.478767 
	C300.343445,118.971451 299.649567,117.859543 298.955688,116.747635 
	C298.460632,116.951828 297.965546,117.156021 297.470490,117.360214 
	C297.536591,116.125710 297.602692,114.891212 297.682373,113.403404 
	C297.125336,113.559616 296.723633,113.723358 296.307281,113.780457 
	C294.167236,114.073944 291.700226,115.182732 291.403442,111.340683 
	C291.375427,110.978157 288.538300,110.832642 286.806641,110.825966 
	C286.082062,110.592781 285.556274,110.120003 284.995026,109.360580 
z"/>
<path fill="#A7C589" opacity="1.000000" stroke="none" 
	d="
M306.978851,90.188530 
	C306.575195,88.978691 306.171539,87.768845 305.620331,86.116806 
	C307.316528,86.260872 308.923950,86.397400 310.705750,86.548737 
	C310.419250,85.622612 310.206146,84.933685 309.869476,83.845345 
	C312.804840,84.586212 315.459076,85.256111 318.113281,85.926018 
	C318.262329,85.541031 318.411346,85.156036 318.560394,84.771049 
	C317.447662,84.055702 316.334961,83.340355 315.109375,82.314041 
	C318.318268,83.299255 321.640015,84.595436 324.961761,85.891624 
	C324.873627,86.626656 324.785492,87.361687 324.697327,88.096725 
	C321.700623,88.667526 318.458252,90.224937 315.770386,89.555580 
	C312.522278,88.746696 310.257812,89.523537 307.384155,90.997978 
	C306.997925,91.012169 307.044342,91.006104 306.988831,90.804848 
	C306.933319,90.603592 306.978851,90.188530 306.978851,90.188530 
z"/>
<path fill="#729C46" opacity="1.000000" stroke="none" 
	d="
M271.924561,94.006973 
	C270.314178,92.935699 268.703827,91.864426 267.040100,90.503838 
	C272.546875,87.190117 266.679779,86.476074 265.889648,84.054169 
	C265.586884,81.079285 268.449371,77.517784 263.799225,77.269661 
	C264.177429,76.158386 264.536835,75.102386 264.896210,74.046387 
	C269.178833,73.548820 268.688446,77.406204 269.571228,79.594032 
	C271.234467,83.716110 272.302460,88.078377 273.521301,92.664658 
	C272.924652,93.328003 272.424591,93.667496 271.924561,94.006973 
z"/>
<path fill="#9ABB7C" opacity="1.000000" stroke="none" 
	d="
M276.161560,49.398403 
	C275.430847,50.057663 274.546997,50.405689 273.046509,50.996502 
	C275.268341,52.694168 277.108856,53.959728 278.781708,55.417660 
	C280.510376,56.924225 281.447021,58.579277 278.237854,59.953579 
	C277.949615,59.994579 277.991272,60.055836 277.889130,59.817451 
	C277.503357,59.385139 277.219727,59.191216 276.971985,58.998135 
	C277.007874,58.998978 277.008148,59.070778 276.900238,58.899467 
	C276.498352,58.843464 276.204346,58.958771 275.666016,59.083988 
	C275.421692,59.093899 274.933807,59.127888 274.933807,59.127888 
	C271.155273,56.059956 271.680481,51.599205 270.206360,47.785500 
	C270.611542,47.493271 271.016754,47.201042 271.421936,46.908813 
	C272.950775,47.634930 274.479584,48.361050 276.161560,49.398403 
z"/>
<path fill="#DCEDCD" opacity="1.000000" stroke="none" 
	d="
M279.809784,80.153214 
	C279.809784,80.153206 280.012726,80.561935 279.760498,80.872543 
	C278.302643,81.853973 277.097046,82.524796 275.891449,83.195618 
	C275.235992,81.984406 274.580536,80.773201 273.772827,79.022858 
	C273.554230,78.167656 273.376740,77.937141 273.088043,77.792168 
	C273.023407,77.397308 272.958801,77.002441 272.932556,76.309372 
	C273.925659,75.316589 275.375763,74.812263 275.730957,73.887444 
	C276.448242,72.019753 276.570831,69.923653 276.937378,67.560028 
	C280.065430,68.610687 281.438782,70.505592 279.034576,73.773483 
	C278.616150,74.342194 278.977600,75.484650 278.740295,76.774063 
	C278.937714,78.175079 279.373749,79.164146 279.809784,80.153214 
z"/>
<path fill="#729C46" opacity="1.000000" stroke="none" 
	d="
M246.189941,60.240005 
	C248.701080,60.852520 251.332123,61.904926 254.031601,62.734592 
	C255.458420,63.173122 257.004456,63.223835 259.841064,63.653084 
	C257.508636,64.698265 256.436554,65.178680 255.189590,65.975174 
	C249.748703,68.000916 248.228165,64.013229 246.189941,60.240005 
z"/>
<path fill="#9ABB7C" opacity="1.000000" stroke="none" 
	d="
M310.013672,127.288483 
	C310.123352,124.384888 310.241241,121.860985 310.359131,119.337074 
	C310.814209,119.339073 311.269257,119.341064 311.724304,119.343063 
	C311.901031,121.524391 312.077759,123.705719 312.304840,126.508507 
	C312.822144,124.805107 313.171875,123.653488 313.849060,121.423660 
	C315.075073,125.745941 316.008820,129.037994 316.908386,132.737213 
	C314.590057,131.318970 312.306000,129.493561 310.013672,127.288483 
z"/>
<path fill="#9ABB7C" opacity="1.000000" stroke="none" 
	d="
M264.884033,73.811951 
	C264.536835,75.102386 264.177429,76.158386 263.799225,77.269661 
	C268.449371,77.517784 265.586884,81.079285 265.901550,83.747055 
	C263.448395,81.918060 260.993500,79.712715 258.603455,77.565598 
	C259.610474,76.042076 260.358398,74.910500 261.073456,73.199577 
	C261.040558,72.620232 261.176208,72.160149 261.176208,72.160149 
	C261.865295,72.130783 262.554382,72.101410 263.722778,72.263451 
	C264.393646,72.734802 264.639343,72.954132 264.939178,73.112846 
	C264.939178,73.112846 264.871887,73.577515 264.884033,73.811951 
M263.632446,74.501343 
	C263.632446,74.501343 263.527130,74.560211 263.632446,74.501343 
z"/>
<path fill="#729C46" opacity="1.000000" stroke="none" 
	d="
M260.988159,71.972382 
	C261.176208,72.160149 261.040558,72.620232 261.012451,72.858444 
	C257.892059,72.228691 254.799820,71.360733 250.841248,70.249603 
	C253.394180,68.783569 255.065704,67.823685 256.572693,66.540680 
	C258.786011,67.229469 261.163910,68.241364 263.958435,69.430550 
	C262.450134,70.554764 261.625153,71.169693 260.988159,71.972382 
z"/>
<path fill="#DCEDCD" opacity="1.000000" stroke="none" 
	d="
M274.936340,99.128410 
	C274.910950,100.403229 274.885559,101.678047 274.545654,102.987198 
	C272.868195,103.324310 271.505280,103.627098 269.810242,104.025925 
	C269.483215,102.662918 269.488281,101.203865 269.352112,99.453049 
	C270.359711,98.566917 271.508575,97.972549 273.236542,97.390907 
	C273.815643,97.403633 274.018219,97.005516 274.008484,97.001587 
	C273.998718,96.997665 273.983734,96.982887 273.901245,97.309265 
	C274.206268,97.771469 274.593781,97.907288 274.981293,98.043106 
	C274.981293,98.043106 275.004547,97.999382 274.875946,98.280052 
	C274.810333,98.749954 274.873322,98.939178 274.936340,99.128410 
z"/>
<path fill="#B8D09D" opacity="1.000000" stroke="none" 
	d="
M306.899994,92.917114 
	C305.555695,93.545540 304.135712,93.785149 301.987885,94.045776 
	C300.541534,94.125542 299.823029,94.184288 298.779602,94.112038 
	C297.306091,92.661598 296.157501,91.342155 295.008881,90.022705 
	C295.802673,90.241684 296.596497,90.460648 297.883057,91.062698 
	C299.979492,90.412086 301.583099,89.378395 303.186737,88.344696 
	C303.351013,88.438835 303.515259,88.532967 303.865021,89.179817 
	C305.048462,90.157059 306.046387,90.581581 307.044342,91.006104 
	C307.044342,91.006104 306.997925,91.012169 306.994415,90.989365 
	C306.935364,91.487144 306.879822,92.007721 306.899994,92.917114 
z"/>
<path fill="#729C46" opacity="1.000000" stroke="none" 
	d="
M249.567596,57.069443 
	C247.719177,57.741985 245.528488,58.224854 243.211838,59.012993 
	C241.435028,59.021946 239.784180,58.725628 238.133331,58.429314 
	C238.164429,57.912800 238.195511,57.396286 238.226608,56.879772 
	C241.892838,56.879772 245.559082,56.879772 249.567596,57.069443 
z"/>
<path fill="#DCEDCD" opacity="1.000000" stroke="none" 
	d="
M274.943848,59.510273 
	C274.933807,59.127888 275.421692,59.093899 275.940918,59.196457 
	C276.642792,59.222935 276.825470,59.146854 277.008148,59.070778 
	C277.008148,59.070778 277.007874,58.998978 276.957336,59.310543 
	C277.268311,59.766685 277.629791,59.911259 277.991272,60.055832 
	C277.991272,60.055836 277.949615,59.994579 277.916748,60.011478 
	C278.760803,61.671185 279.637726,63.313995 280.793793,65.479729 
	C279.073425,65.479729 277.602661,65.479729 275.941833,65.764038 
	C275.485840,63.996449 275.219879,61.944553 274.943848,59.510273 
z"/>
<path fill="#8BB069" opacity="1.000000" stroke="none" 
	d="
M249.914642,109.043777 
	C252.379044,108.253624 254.843460,107.463478 257.602570,107.150131 
	C257.482208,108.656944 257.067139,109.686958 256.652069,110.716972 
	C256.251099,110.674492 255.850113,110.632019 254.800812,110.673950 
	C252.736618,110.194855 249.834824,113.304077 249.914642,109.043777 
z"/>
<path fill="#84A95F" opacity="1.000000" stroke="none" 
	d="
M304.562195,121.199356 
	C305.969757,119.324463 307.177429,117.654549 308.385071,115.984634 
	C308.718079,116.108803 309.051086,116.232979 309.384094,116.357147 
	C308.611816,118.378784 307.839508,120.400429 306.989319,122.790535 
	C305.572784,123.284409 303.530975,124.431381 304.562195,121.199356 
z"/>
<path fill="#DCEDCD" opacity="1.000000" stroke="none" 
	d="
M249.686279,108.901360 
	C249.834824,113.304077 252.736618,110.194855 254.504974,110.738800 
	C254.044632,114.149277 251.642090,113.784050 248.789032,113.153030 
	C248.793961,111.707642 249.125946,110.233284 249.686279,108.901360 
z"/>
<path fill="#DCEDCD" opacity="1.000000" stroke="none" 
	d="
M257.060669,110.775513 
	C257.067139,109.686958 257.482208,108.656944 257.882568,107.291031 
	C258.220184,106.490295 258.572540,106.025452 259.020203,106.110352 
	C260.301300,106.987289 261.487061,107.314491 262.672852,107.641693 
	C260.938324,108.705818 259.203796,109.769928 257.060669,110.775513 
z"/>
<path fill="#DCEDCD" opacity="1.000000" stroke="none" 
	d="
M236.639633,122.882378 
	C236.639633,122.882378 236.864716,122.457825 237.274902,122.231346 
	C238.016342,121.307213 238.347580,120.609558 238.678833,119.911896 
	C238.762070,119.491867 238.845291,119.071823 239.346619,118.355927 
	C240.473267,118.002472 241.181808,117.944878 241.958664,117.958412 
	C242.026978,118.029541 242.161942,118.173332 242.161926,118.173325 
	C240.750732,120.130150 239.339539,122.086967 237.436432,123.755173 
	C236.842880,123.271835 236.741257,123.077110 236.639633,122.882378 
z"/>
<path fill="#8BB069" opacity="1.000000" stroke="none" 
	d="
M262.798096,107.332870 
	C261.487061,107.314491 260.301300,106.987289 259.104919,106.311951 
	C261.040314,105.654633 262.986359,105.345436 265.032715,105.343887 
	C264.396515,106.109039 263.659943,106.566551 262.798096,107.332870 
z"/>
<path fill="#DCEDCD" opacity="1.000000" stroke="none" 
	d="
M243.037720,115.037003 
	C243.214539,114.718323 243.391357,114.399643 244.071106,113.974670 
	C245.044815,114.622665 245.515610,115.376976 245.986389,116.131279 
	C244.941803,116.765648 243.897232,117.400017 242.507294,118.103867 
	C242.161942,118.173332 242.026978,118.029541 242.049652,117.662598 
	C242.394135,116.542770 242.715927,115.789886 243.037720,115.037003 
z"/>
<path fill="#8BB069" opacity="1.000000" stroke="none" 
	d="
M246.307617,116.028381 
	C245.515610,115.376976 245.044815,114.622665 244.228851,113.751190 
	C244.177002,112.619164 244.470322,111.604309 245.053055,109.588135 
	C246.217987,111.114395 246.870132,111.968811 247.812561,112.967285 
	C247.611511,114.049377 247.120178,114.987427 246.307617,116.028381 
z"/>
<path fill="#8BB069" opacity="1.000000" stroke="none" 
	d="
M236.350433,122.851532 
	C236.741257,123.077110 236.842880,123.271835 237.077057,123.768707 
	C235.532867,124.482719 232.857391,127.157227 233.657669,122.194588 
	C234.593277,122.256981 235.327255,122.538841 236.350433,122.851532 
z"/>
<path fill="#729C46" opacity="1.000000" stroke="none" 
	d="
M255.449677,58.453548 
	C254.530212,58.531719 253.390549,58.346447 252.116638,57.829315 
	C253.064758,57.728336 254.147141,57.959221 255.449677,58.453548 
z"/>
<path fill="#709A45" opacity="1.000000" stroke="none" 
	d="
M333.012726,108.667557 
	C332.346832,108.159470 331.702209,107.319962 331.071167,106.142868 
	C331.734528,106.648895 332.384247,107.492516 333.012726,108.667557 
z"/>
<path fill="#729C46" opacity="1.000000" stroke="none" 
	d="
M260.470306,60.875874 
	C259.783478,60.741665 258.952484,60.370205 258.050964,59.718605 
	C258.762329,59.838512 259.544250,60.238567 260.470306,60.875874 
z"/>
<path fill="#709A45" opacity="1.000000" stroke="none" 
	d="
M333.140747,110.630051 
	C333.037018,110.470894 332.988953,110.181305 333.020447,110.037781 
	C333.352325,110.288406 333.652679,110.682549 333.953033,111.076691 
	C333.716827,110.980858 333.480652,110.885025 333.140747,110.630051 
z"/>
<path fill="#709A45" opacity="1.000000" stroke="none" 
	d="
M321.287231,96.555756 
	C320.697845,96.596260 319.925873,96.384972 319.009094,95.890953 
	C319.611084,95.840134 320.357880,96.072037 321.287231,96.555756 
z"/>
<path fill="#729C46" opacity="1.000000" stroke="none" 
	d="
M268.062683,68.656509 
	C267.763092,68.480690 267.408600,68.003700 267.049255,67.209816 
	C267.365509,67.380394 267.686646,67.867874 268.062683,68.656509 
z"/>
<path fill="#B8D09D" opacity="1.000000" stroke="none" 
	d="
M318.642029,95.012329 
	C318.718109,95.232590 318.335266,95.282516 318.335266,95.282516 
	C318.335266,95.282516 317.979614,95.132324 317.858551,94.983429 
	C317.999603,94.542648 318.275787,94.528496 318.642029,95.012329 
z"/>
<path fill="#729C46" opacity="1.000000" stroke="none" 
	d="
M266.236572,65.793358 
	C266.149902,65.795494 266.172058,65.774933 266.169067,65.795181 
	C266.166107,65.815422 266.323273,65.791222 266.236572,65.793358 
z"/>
<path fill="#709A45" opacity="1.000000" stroke="none" 
	d="
M324.391388,98.530472 
	C324.159546,98.648071 323.759216,98.494621 323.225952,98.037811 
	C323.469635,97.909447 323.846283,98.084435 324.391388,98.530472 
z"/>
<path fill="#B8D09D" opacity="1.000000" stroke="none" 
	d="
M315.701630,94.140778 
	C315.667114,94.312119 315.368378,94.400467 315.250977,94.298508 
	C315.334442,94.120842 315.535309,94.045143 315.701630,94.140778 
z"/>
<path fill="#709A45" opacity="1.000000" stroke="none" 
	d="
M326.127258,99.821228 
	C326.083710,99.755562 326.184998,99.838699 326.194519,99.871475 
	C326.204041,99.904259 326.170837,99.886894 326.127258,99.821228 
z"/>
<path fill="#DCEDCD" opacity="1.000000" stroke="none" 
	d="
M265.037659,106.263321 
	C265.150299,106.041725 265.337921,105.995605 265.774841,106.097733 
	C265.720276,106.310265 265.416473,106.374542 265.037659,106.263321 
z"/>
<path fill="#709A45" opacity="1.000000" stroke="none" 
	d="
M313.756958,94.041458 
	C313.703522,94.233452 313.420441,94.287735 313.069275,94.172394 
	C313.176544,93.969757 313.351959,93.936745 313.756958,94.041458 
z"/>
<path fill="#F8F7F3" opacity="1.000000" stroke="none" 
	d="
M118.028442,163.014862 
	C114.735931,163.014877 111.939285,163.014877 108.882629,163.014877 
	C108.882629,166.017426 108.882629,168.611511 108.882629,171.988449 
	C115.855637,171.988449 122.919319,171.982529 129.982986,171.990128 
	C136.923447,171.997604 140.034531,173.914917 140.049591,178.172791 
	C140.063782,182.185181 136.396790,184.573822 129.942245,184.601486 
	C121.792870,184.636398 113.643074,184.580093 105.493530,184.545914 
	C105.184288,184.544617 104.875793,184.363464 104.177109,184.143280 
	C104.177109,173.556717 104.177109,162.850098 104.177109,151.824280 
	C114.154922,151.824280 124.202812,151.668488 134.240799,151.915451 
	C137.414536,151.993561 139.282562,154.159424 139.073273,157.659454 
	C138.860641,161.215576 136.521805,162.710251 133.487854,162.880020 
	C128.513077,163.158401 123.513458,162.993057 118.028442,163.014862 
z"/>
<path fill="#F2F1EE" opacity="1.000000" stroke="none" 
	d="
M284.978943,148.055405 
	C287.056763,146.575958 289.134613,145.096512 291.491180,143.443405 
	C301.466705,150.677032 305.440643,160.452545 305.275391,172.647583 
	C305.122925,183.897903 291.850952,191.479446 282.220947,185.182327 
	C277.290710,181.958420 271.871735,179.139832 267.798889,175.024414 
	C261.133392,168.289261 259.794861,159.448029 261.532654,150.352280 
	C263.326202,140.964722 272.819580,136.578201 283.538818,139.982834 
	C288.241699,141.287155 285.366058,144.307205 284.777893,146.786499 
	C280.043701,147.622223 276.055450,148.280716 271.690857,148.977386 
	C266.108582,152.228302 266.544617,157.445251 267.359314,162.194397 
	C269.165344,172.722565 278.742188,181.529526 291.357513,179.954712 
	C302.169342,175.962097 300.965210,160.053345 291.630157,151.668640 
	C287.969055,148.380280 285.500183,152.059448 281.500305,152.652084 
	C283.071716,150.575607 284.025330,149.315506 284.978943,148.055405 
z"/>
<path fill="#F2F4EB" opacity="1.000000" stroke="none" 
	d="
M286.096252,129.033310 
	C285.262329,131.044312 284.428436,133.055313 283.246002,135.218872 
	C276.947510,135.503036 270.997528,135.634628 264.308563,135.782562 
	C267.785583,127.298416 271.512970,118.137207 275.339905,109.017769 
	C275.589081,108.424019 276.602814,108.151100 277.635193,107.829605 
	C279.276031,112.300163 280.528900,116.674255 281.865448,121.022621 
	C281.912720,121.176437 282.789520,121.075279 283.493744,121.374527 
	C282.800812,123.825417 281.893860,125.994736 281.076813,127.949074 
	C283.293671,128.427933 284.694977,128.730621 286.096252,129.033310 
z"/>
<path fill="#8BB069" opacity="1.000000" stroke="none" 
	d="
M294.809174,89.788315 
	C296.157501,91.342155 297.306091,92.661598 298.725830,94.278641 
	C298.997009,94.576241 298.898560,94.913536 298.898560,94.913544 
	C295.204681,95.576454 291.510773,96.239365 287.437378,96.673332 
	C287.057831,96.444382 287.069550,96.031578 287.069550,96.031578 
	C289.582855,93.872360 292.096161,91.713142 294.809174,89.788315 
z"/>
<path fill="#9ABB7C" opacity="1.000000" stroke="none" 
	d="
M275.939056,83.543991 
	C277.097046,82.524796 278.302643,81.853973 279.842834,81.085327 
	C281.641693,83.721184 281.564453,86.126808 278.129059,87.953201 
	C277.560059,87.967590 277.114410,87.851517 277.114410,87.851517 
	C276.738495,86.531792 276.362579,85.212074 275.939056,83.543991 
z"/>
<path fill="#8BB069" opacity="1.000000" stroke="none" 
	d="
M303.064331,88.105698 
	C301.583099,89.378395 299.979492,90.412086 298.180084,91.173492 
	C299.186859,89.154503 298.744476,84.720390 303.064331,88.105698 
z"/>
<path fill="#DCEDCD" opacity="1.000000" stroke="none" 
	d="
M272.036926,94.259232 
	C272.424591,93.667496 272.924652,93.328003 273.719849,92.871033 
	C274.434326,92.815292 274.853638,92.877029 275.620544,93.369995 
	C276.083099,94.482559 276.198090,95.163895 276.313049,95.845238 
	C276.053619,96.173355 275.794189,96.501465 275.003418,96.864700 
	C274.472107,96.899818 273.983734,96.982887 273.983734,96.982887 
	C273.983734,96.982887 273.998718,96.997665 273.969910,96.736374 
	C273.655731,96.273994 273.370331,96.072906 273.084930,95.871811 
	C272.773071,95.418365 272.461182,94.964928 272.036926,94.259232 
z"/>
<path fill="#709A45" opacity="1.000000" stroke="none" 
	d="
M286.696472,96.055725 
	C287.069550,96.031578 287.057831,96.444382 287.049438,96.649063 
	C287.004028,97.402473 286.967072,97.951195 286.877686,98.910385 
	C285.834991,98.843475 284.844666,98.366096 283.706146,97.581375 
	C284.479767,96.875977 285.401581,96.477928 286.696472,96.055725 
z"/>
<path fill="#9ABB7C" opacity="1.000000" stroke="none" 
	d="
M279.862671,79.814857 
	C279.373749,79.164146 278.937714,78.175079 278.791931,77.074509 
	C279.082184,76.963005 279.036102,77.003601 279.017761,77.249786 
	C279.329651,77.929184 279.659912,78.362411 279.990143,78.795639 
	C279.965302,79.022591 279.940460,79.249550 279.862671,79.814857 
z"/>
<path fill="#FEFEFE" opacity="1.000000" stroke="none" 
	d="
M306.988831,90.804848 
	C306.046387,90.581581 305.048462,90.157059 304.051208,89.394264 
	C304.820465,89.383629 305.588959,89.711258 306.668152,90.113708 
	C306.978851,90.188530 306.933319,90.603592 306.988831,90.804848 
z"/>
<path fill="#DCEDCD" opacity="1.000000" stroke="none" 
	d="
M277.292175,93.265617 
	C279.233673,93.352257 280.589691,93.729996 278.278076,95.878235 
	C278.005829,95.960464 278.025146,95.999214 277.998230,95.703995 
	C277.744934,94.694389 277.518555,93.980003 277.292175,93.265617 
z"/>
<path fill="#729C46" opacity="1.000000" stroke="none" 
	d="
M276.983337,88.146637 
	C277.114410,87.851517 277.560059,87.967590 277.786133,88.012222 
	C277.596649,88.865288 277.181061,89.673729 276.765503,90.482162 
	C276.794434,89.802032 276.823364,89.121902 276.983337,88.146637 
z"/>
<path fill="#9ABB7C" opacity="1.000000" stroke="none" 
	d="
M276.941315,93.217491 
	C277.518555,93.980003 277.744934,94.694389 278.013245,95.689163 
	C277.665894,95.953278 277.276672,95.936996 276.600250,95.882980 
	C276.198090,95.163895 276.083099,94.482559 275.926208,93.457382 
	C276.119720,93.132156 276.355072,93.150757 276.941315,93.217491 
z"/>
<path fill="#DCEDCD" opacity="1.000000" stroke="none" 
	d="
M280.211121,78.832596 
	C279.659912,78.362411 279.329651,77.929184 279.012299,77.219826 
	C279.573639,77.128441 280.122101,77.313187 280.780975,77.970688 
	C280.891388,78.443436 280.880035,78.882874 280.880035,78.882874 
	C280.880035,78.882874 280.432129,78.869560 280.211121,78.832596 
z"/>
<path fill="#729C46" opacity="1.000000" stroke="none" 
	d="
M264.860870,72.861732 
	C264.639343,72.954132 264.393646,72.734802 264.067169,72.245651 
	C264.215698,72.227829 264.499146,72.419228 264.860870,72.861732 
z"/>
<path fill="#FEFEFE" opacity="1.000000" stroke="none" 
	d="
M286.280457,89.365097 
	C286.056519,89.455460 285.598419,89.259972 285.332306,88.810371 
	C285.698273,88.730591 285.872284,88.904922 286.280457,89.365097 
z"/>
<path fill="#729C46" opacity="1.000000" stroke="none" 
	d="
M273.100342,78.009995 
	C273.376740,77.937141 273.554230,78.167656 273.608337,78.706787 
	C273.346497,78.756790 273.185333,78.522781 273.100342,78.009995 
z"/>
<path fill="#9ABB7C" opacity="1.000000" stroke="none" 
	d="
M281.100830,78.880341 
	C280.880035,78.882874 280.891388,78.443436 280.940552,78.229324 
	C281.197266,78.193520 281.404877,78.371834 281.612457,78.550148 
	C281.515503,78.659370 281.418579,78.768593 281.100830,78.880341 
z"/>
<path fill="#6A973C" opacity="1.000000" stroke="none" 
	d="
M288.997406,99.007393 
	C290.500153,99.155212 292.002899,99.303032 293.752930,100.063599 
	C293.997284,101.119606 293.994354,101.562851 293.991455,102.006096 
	C292.749451,101.852776 291.507446,101.699455 290.023804,101.008057 
	C289.520569,99.982452 289.259003,99.494919 288.997406,99.007393 
z"/>
<path fill="#709A45" opacity="1.000000" stroke="none" 
	d="
M294.340088,101.966820 
	C293.994354,101.562851 293.997284,101.119606 294.000732,100.344238 
	C294.700592,99.433983 295.399933,98.855858 296.099304,98.277733 
	C296.422638,98.529533 296.745941,98.781342 297.069275,99.033150 
	C296.275787,99.997948 295.482269,100.962746 294.340088,101.966820 
z"/>
<path fill="#6A973C" opacity="1.000000" stroke="none" 
	d="
M300.792847,97.714561 
	C300.199432,98.876556 299.394043,99.805077 298.311646,100.870361 
	C298.883392,99.831787 299.732147,98.656433 300.792847,97.714561 
z"/>
<path fill="#709A45" opacity="1.000000" stroke="none" 
	d="
M288.748444,99.102806 
	C289.259003,99.494919 289.520569,99.982452 289.887451,100.725929 
	C289.175110,101.300827 288.357452,101.619774 287.206421,101.936264 
	C286.935608,101.496323 286.998169,101.058838 287.080017,100.289215 
	C287.566071,99.704124 288.032776,99.451172 288.748444,99.102806 
z"/>
<path fill="#709A45" opacity="1.000000" stroke="none" 
	d="
M299.235901,94.939621 
	C298.898560,94.913536 298.997009,94.576241 299.050751,94.409637 
	C299.823029,94.184288 300.541534,94.125542 301.618591,94.110474 
	C301.175812,94.424667 300.374542,94.695190 299.235901,94.939621 
z"/>
<path fill="#84A95F" opacity="1.000000" stroke="none" 
	d="
M286.857239,105.719208 
	C286.409271,105.828598 285.822449,105.687973 285.177246,105.232674 
	C285.652039,105.101738 286.185211,105.285469 286.857239,105.719208 
z"/>
<path fill="#84A95F" opacity="1.000000" stroke="none" 
	d="
M262.332855,99.945480 
	C261.990295,98.888474 262.044495,97.810776 262.138123,96.325584 
	C264.409119,96.701805 266.640747,97.485512 268.945557,98.628357 
	C266.922363,99.299919 264.826019,99.612358 262.332855,99.945480 
z"/>
<path fill="#84A95F" opacity="1.000000" stroke="none" 
	d="
M259.770386,95.833038 
	C257.340973,99.059212 257.126007,95.584435 256.013611,94.160172 
	C257.188171,94.430786 258.361023,95.046196 259.770386,95.833038 
z"/>
<path fill="#84A95F" opacity="1.000000" stroke="none" 
	d="
M273.102478,96.280518 
	C273.370331,96.072906 273.655731,96.273994 273.979675,96.740303 
	C274.018219,97.005516 273.815643,97.403633 273.601013,97.433228 
	C273.297577,97.204948 273.208771,96.947090 273.102478,96.280518 
z"/>
<path fill="#DADAD7" opacity="1.000000" stroke="none" 
	d="
M272.067169,148.939194 
	C276.055450,148.280716 280.043701,147.622223 284.485107,146.974762 
	C284.944244,147.164078 284.950256,147.342392 284.967590,147.788055 
	C284.025330,149.315506 283.071716,150.575607 281.500305,152.652084 
	C285.500183,152.059448 287.969055,148.380280 291.630157,151.668640 
	C300.965210,160.053345 302.169342,175.962097 291.285767,179.588074 
	C290.369720,178.861984 289.913147,178.178177 289.396973,178.129776 
	C275.936127,176.867752 267.428650,162.926987 272.067169,148.939194 
z"/>
<path fill="#9ABB7C" opacity="1.000000" stroke="none" 
	d="
M286.378418,128.876251 
	C284.694977,128.730621 283.293671,128.427933 281.076813,127.949074 
	C281.893860,125.994736 282.800812,123.825417 283.819305,121.353256 
	C283.930817,121.050415 284.317871,120.818230 284.653351,120.897278 
	C284.988831,120.976334 285.221863,121.201599 285.221863,121.201599 
	C285.701416,123.707466 286.181000,126.213333 286.378418,128.876251 
z"/>
<path fill="#9ABB7C" opacity="1.000000" stroke="none" 
	d="
M284.875916,120.860077 
	C284.976837,120.608627 285.190643,120.473434 285.404449,120.338242 
	C285.443298,120.541756 285.482147,120.745277 285.371429,121.075195 
	C285.221863,121.201599 284.988831,120.976334 284.875916,120.860077 
z"/>
<path fill="#8BB069" opacity="1.000000" stroke="none" 
	d="
M242.779175,114.844948 
	C242.715927,115.789886 242.394135,116.542770 241.981354,117.591469 
	C241.181808,117.944878 240.473267,118.002472 239.408997,118.040375 
	C239.537430,115.871422 240.021576,113.722153 240.505722,111.572876 
	C240.885712,111.675598 241.265701,111.778313 241.645691,111.881035 
	C241.937332,112.804985 242.228989,113.728943 242.779175,114.844948 
z"/>
<path fill="#8BB069" opacity="1.000000" stroke="none" 
	d="
M238.385803,119.980301 
	C238.347580,120.609558 238.016342,121.307213 237.342224,122.000702 
	C237.363831,121.347260 237.728302,120.697975 238.385803,119.980301 
z"/>
<path fill="#689639" opacity="1.000000" stroke="none" 
	d="
M250.004303,93.999290 
	C249.796234,94.182228 249.603333,94.387054 249.410431,94.591881 
	C249.483704,94.348953 249.556976,94.106026 249.840469,93.963699 
	C250.050674,94.064316 250.019470,94.021172 250.004303,93.999290 
z"/>
<path fill="#84A95F" opacity="1.000000" stroke="none" 
	d="
M273.901245,97.309265 
	C273.983734,96.982887 274.472107,96.899818 274.707092,96.977814 
	C274.942108,97.055817 274.985657,97.548485 274.983459,97.795792 
	C274.593781,97.907288 274.206268,97.771469 273.901245,97.309265 
z"/>
<path fill="#84A95F" opacity="1.000000" stroke="none" 
	d="
M275.111816,99.014572 
	C274.873322,98.939178 274.810333,98.749954 274.851196,98.279945 
	C275.143097,98.185455 275.346283,98.360268 275.504517,98.569153 
	C275.531311,98.604553 275.364594,98.786507 275.111816,99.014572 
z"/>
<path fill="#6A973C" opacity="1.000000" stroke="none" 
	d="
M276.900238,58.899467 
	C276.825470,59.146854 276.642792,59.222935 276.185242,59.186546 
	C276.204346,58.958771 276.498352,58.843464 276.900238,58.899467 
z"/>
<path fill="#6A973C" opacity="1.000000" stroke="none" 
	d="
M277.889130,59.817451 
	C277.629791,59.911259 277.268311,59.766685 276.921448,59.309700 
	C277.219727,59.191216 277.503357,59.385139 277.889130,59.817451 
z"/>
<path fill="#729C46" opacity="1.000000" stroke="none" 
	d="
M263.579773,74.530777 
	C263.527130,74.560211 263.632446,74.501343 263.579773,74.530777 
z"/>
<path fill="#C1D9D0" opacity="1.000000" stroke="none" 
	d="
M271.690857,148.977386 
	C267.428650,162.926987 275.936127,176.867752 289.396973,178.129776 
	C289.913147,178.178177 290.369720,178.861984 290.925812,179.616348 
	C278.742188,181.529526 269.165344,172.722565 267.359314,162.194397 
	C266.544617,157.445251 266.108582,152.228302 271.690857,148.977386 
z"/>
</svg>